<?xml version="1.0" encoding="UTF-8"?>
<svg version="1.1" xmlns="http://www.w3.org/2000/svg" width="500" height="500">
<path d="M0 0 C3.12243996 2.26376897 2.81877571 3.14761895 3.5 6.8125 C4.30203365 8.56645555 5.15798666 10.29662873 6.0625 12 C8.5 16.60570113 8.5 16.60570113 8.5 18.8125 C9.49 18.8125 10.48 18.8125 11.5 18.8125 C12.859375 20.5078125 12.859375 20.5078125 14.25 22.9375 C15.0234375 24.28521484 15.0234375 24.28521484 15.8125 25.66015625 C18.030818 29.80409752 20.12685841 34.00481371 22.13964844 38.25244141 C23.63269215 41.65388438 23.63269215 41.65388438 26.5 43.8125 C26.79132813 43.10222656 27.08265625 42.39195312 27.3828125 41.66015625 C27.79273438 40.74105469 28.20265625 39.82195312 28.625 38.875 C29.21667969 37.50021484 29.21667969 37.50021484 29.8203125 36.09765625 C31.5 33.8125 31.5 33.8125 34 32.96875 C38.81739199 32.75368786 43.56395189 32.96642196 48.375 33.25 C49.34953125 33.30220703 50.3240625 33.35441406 51.328125 33.40820312 C53.71913402 33.53713008 56.10964426 33.67205944 58.5 33.8125 C59.27597333 39.30128735 59.64481492 44.60158471 59.62939453 50.14038086 C59.63202301 51.32478256 59.63202301 51.32478256 59.63470459 52.53311157 C59.63906753 55.11454536 59.63620687 57.69590941 59.6328125 60.27734375 C59.63348666 62.07955437 59.63445763 63.88176491 59.63571167 65.68397522 C59.63718069 69.44533155 59.63505796 73.20666403 59.63037109 76.96801758 C59.62464545 81.79923088 59.62797564 86.63038898 59.63394356 91.4616003 C59.6375462 95.17520062 59.63641246 98.88878769 59.63381577 102.60238838 C59.63314716 104.38506642 59.63397263 106.16774564 59.63629532 107.95042229 C59.63882006 110.43044128 59.63498514 112.91036873 59.62939453 115.39038086 C59.63141876 116.13162704 59.63344299 116.87287323 59.63552856 117.63658142 C59.61426878 122.69823122 59.61426878 122.69823122 58.5 123.8125 C57.02347336 123.91130797 55.54232764 123.94329245 54.0625 123.9453125 C52.72058594 123.94724609 52.72058594 123.94724609 51.3515625 123.94921875 C49.94003906 123.94341797 49.94003906 123.94341797 48.5 123.9375 C47.08847656 123.94330078 47.08847656 123.94330078 45.6484375 123.94921875 C44.75382812 123.94792969 43.85921875 123.94664062 42.9375 123.9453125 C42.11121094 123.94418457 41.28492188 123.94305664 40.43359375 123.94189453 C38.5 123.8125 38.5 123.8125 37.5 122.8125 C37.37709282 121.15605634 37.32216092 119.49451007 37.29467773 117.83374023 C37.2647599 116.24220375 37.2647599 116.24220375 37.23423767 114.61851501 C37.21752518 113.464366 37.20081268 112.31021698 37.18359375 111.12109375 C37.16281265 109.94611832 37.14203156 108.77114288 37.12062073 107.56056213 C37.05499876 103.79043676 36.9961817 100.02023918 36.9375 96.25 C36.8943268 93.70116427 36.85071292 91.15233597 36.80664062 88.60351562 C36.69930455 82.33992108 36.5975621 76.07625399 36.5 69.8125 C35.91049561 70.93164795 35.32099121 72.0507959 34.71362305 73.20385742 C30.65883308 80.89002251 26.58782612 88.55857581 22.3125 96.125 C18.87882663 102.2452574 15.61768133 108.40516378 12.55859375 114.72265625 C11.5 116.8125 11.5 116.8125 10.5 117.8125 C7.63732433 117.88575168 4.799281 117.90488205 1.9375 117.875 C1.13119141 117.87048828 0.32488281 117.86597656 -0.50585938 117.86132812 C-2.50393756 117.84950518 -4.50197783 117.83156914 -6.5 117.8125 C-8.45796661 114.18335892 -10.41513674 110.55378958 -12.37158203 106.92382812 C-13.03672974 105.68998723 -13.70209185 104.45626189 -14.36767578 103.22265625 C-15.32641573 101.44561957 -16.28431122 99.66812737 -17.2421875 97.890625 C-17.8182373 96.82231445 -18.39428711 95.75400391 -18.98779297 94.65332031 C-19.48682129 93.71584961 -19.98584961 92.77837891 -20.5 91.8125 C-20.89719238 91.08901367 -21.29438477 90.36552734 -21.70361328 89.62011719 C-22.5 87.8125 -22.5 87.8125 -22.5 84.8125 C-19.035 83.8225 -19.035 83.8225 -15.5 82.8125 C-15.5 81.4925 -15.5 80.1725 -15.5 78.8125 C-14.51 78.4825 -13.52 78.1525 -12.5 77.8125 C-13.15613281 77.97854736 -13.81226563 78.14459473 -14.48828125 78.31567383 C-18.24609113 78.93557843 -21.89644192 78.8672278 -25.6875 78.76171875 C-26.46762451 78.7428511 -27.24774902 78.72398346 -28.05151367 78.70454407 C-29.69555205 78.6628038 -31.33951711 78.61808163 -32.98339844 78.57055664 C-35.49139379 78.50024129 -37.99940581 78.44592233 -40.5078125 78.39257812 C-42.10940125 78.34993304 -43.71096522 78.30634481 -45.3125 78.26171875 C-46.05846436 78.24703049 -46.80442871 78.23234222 -47.57299805 78.21720886 C-51.62342634 78.08436283 -54.84598273 77.59867912 -58.5 75.8125 C-58.5 74.8225 -58.5 73.8325 -58.5 72.8125 C-59.0775 72.77125 -59.655 72.73 -60.25 72.6875 C-63.79179225 71.31013635 -64.78412281 69.12169173 -66.5 65.8125 C-67.29518822 59.90538752 -65.68370292 54.29179126 -63.5 48.8125 C-62.84 48.1525 -62.18 47.4925 -61.5 46.8125 C-60.93410598 44.66210273 -60.44349979 42.49143377 -60 40.3125 C-58.72222222 34.03472222 -58.72222222 34.03472222 -56.5 31.8125 C-54.51751285 31.09543018 -52.51584651 30.42959587 -50.5 29.8125 C-49.51 29.4825 -48.52 29.1525 -47.5 28.8125 C-47.5 28.1525 -47.5 27.4925 -47.5 26.8125 C-46.530625 26.008125 -45.56125 25.20375 -44.5625 24.375 C-41.30624673 22.10565623 -41.30624673 22.10565623 -40.5 18.8125 C-38.890625 17.375 -38.890625 17.375 -36.75 15.8125 C-33.81967989 13.62296481 -30.97497556 11.38804664 -28.22265625 8.98046875 C-27.37622559 8.24280273 -27.37622559 8.24280273 -26.51269531 7.49023438 C-25.40048264 6.51537134 -24.2940803 5.533829 -23.19433594 4.54492188 C-16.30313478 -1.45668013 -8.5905989 -2.91466749 0 0 Z M-0.5 11.8125 C-1.82 13.1325 -3.14 14.4525 -4.5 15.8125 C-2.9722133 19.25002007 -0.99818944 22.00203688 1.5 24.8125 C2.16 24.8125 2.82 24.8125 3.5 24.8125 C3.5 25.4725 3.5 26.1325 3.5 26.8125 C4.16 26.8125 4.82 26.8125 5.5 26.8125 C5.78875 27.451875 6.0775 28.09125 6.375 28.75 C7.32823451 30.96456079 7.32823451 30.96456079 9.5 31.8125 C9.190625 30.94625 8.88125 30.08 8.5625 29.1875 C7.57508101 26.05099262 6.96418941 23.06182587 6.5 19.8125 C5.84 19.8125 5.18 19.8125 4.5 19.8125 C4.37625 18.94625 4.37625 18.94625 4.25 18.0625 C3.29468987 15.1965696 1.71530827 13.8134236 -0.5 11.8125 Z M-33.5 21.8125 C-33.9125 22.245625 -34.325 22.67875 -34.75 23.125 C-36.5 24.8125 -36.5 24.8125 -39.4375 26.25 C-42.45106418 27.78753275 -44.29898846 29.2728713 -46.5 31.8125 C-46.5 32.1425 -46.5 32.4725 -46.5 32.8125 C-42.79706315 33.14913062 -41.10465619 33.28986015 -38.125 30.9375 C-36.29751663 28.99356686 -36.29751663 28.99356686 -36.5 26.8125 C-35.84 26.8125 -35.18 26.8125 -34.5 26.8125 C-32.8553326 24.34923288 -32.8553326 24.34923288 -31.5 21.8125 C-32.16 21.8125 -32.82 21.8125 -33.5 21.8125 Z M-19.375 30.75 C-24.70705867 35.35869998 -30.16274453 39.66492902 -35.84375 43.83984375 C-38.44642466 45.77271243 -40.98078172 47.77248085 -43.5 49.8125 C-40.64193382 61.59528225 -35.78133686 67.64422042 -25.359375 74.1484375 C-23.24917431 75.13853369 -23.24917431 75.13853369 -20.25 73.4375 C-19.3425 72.90125 -18.435 72.365 -17.5 71.8125 C-18.82 70.4925 -20.14 69.1725 -21.5 67.8125 C-18.2 67.1525 -14.9 66.4925 -11.5 65.8125 C-11.17 66.8025 -10.84 67.7925 -10.5 68.8125 C-6.99705129 70.52817661 -6.99705129 70.52817661 -3.5 71.8125 C-7.46 73.7925 -7.46 73.7925 -11.5 75.8125 C-8.5 77.14583333 -8.5 77.14583333 -5.5 75.8125 C-5.22414063 76.52792969 -4.94828125 77.24335938 -4.6640625 77.98046875 C-3.51751478 80.76988855 -2.23772885 83.43540358 -0.875 86.125 C-0.42898438 87.00800781 0.01703125 87.89101562 0.4765625 88.80078125 C0.81429687 89.46464844 1.15203125 90.12851563 1.5 90.8125 C3.6965886 88.77639987 5.14032775 86.90807457 6.47265625 84.23046875 C6.81490234 83.54533203 7.15714844 82.86019531 7.50976562 82.15429688 C7.85716797 81.44337891 8.20457031 80.73246094 8.5625 80 C8.91376953 79.30068359 9.26503906 78.60136719 9.62695312 77.88085938 C11.58158935 73.93094231 13.21815438 70.04325471 14.5 65.8125 C13.51 65.8125 12.52 65.8125 11.5 65.8125 C11.231875 65.11125 10.96375 64.41 10.6875 63.6875 C9.4318551 60.6475176 7.99764877 57.7397226 6.5 54.8125 C5.84 54.8125 5.18 54.8125 4.5 54.8125 C4.27054688 53.9978125 4.04109375 53.183125 3.8046875 52.34375 C2.20145909 48.00447312 0.00685904 44.26374722 -2.375 40.3125 C-2.80941406 39.57902344 -3.24382812 38.84554687 -3.69140625 38.08984375 C-4.94427994 35.9866714 -6.21578869 33.89666155 -7.5 31.8125 C-7.87672852 31.19632813 -8.25345703 30.58015625 -8.64160156 29.9453125 C-9.53769446 28.53016671 -10.51150851 27.16472212 -11.5 25.8125 C-14.86254159 25.8125 -16.95084428 28.6176278 -19.375 30.75 Z M-52.5 38.8125 C-53.16 40.4625 -53.82 42.1125 -54.5 43.8125 C-49.67557816 42.54303486 -49.67557816 42.54303486 -46.5 38.8125 C-48.48 38.8125 -50.46 38.8125 -52.5 38.8125 Z M24.5 45.8125 C24.5 48.8125 24.5 48.8125 24.5 48.8125 Z M22.5 49.8125 C22.5 52.8125 22.5 52.8125 22.5 52.8125 Z M20.5 52.8125 C21.5 54.8125 21.5 54.8125 21.5 54.8125 Z M19.5 54.8125 C20.5 56.8125 20.5 56.8125 20.5 56.8125 Z M18.5 56.8125 C18.5 59.8125 18.5 59.8125 18.5 59.8125 Z M16.5 60.8125 C17.5 62.8125 17.5 62.8125 17.5 62.8125 Z M14.5 63.8125 C15.5 65.8125 15.5 65.8125 15.5 65.8125 Z " fill="#EFA225" transform="translate(310.5,165.1875)"/>
<path d="M0 0 C8.91 0 17.82 0 27 0 C28.464375 2.805 29.92875 5.61 31.4375 8.5 C34.73279301 14.78934227 38.10269532 21.02249638 41.625 27.1875 C45.08662428 33.25088384 48.28888232 39.41132438 51.35009766 45.6862793 C53.08363859 49.23082505 54.91244304 52.65094389 57 56 C58.65 53.03 60.3 50.06 62 47 C62.66 47 63.32 47 64 47 C64 45.68 64 44.36 64 43 C64.66 43 65.32 43 66 43 C66.09410156 42.31164062 66.18820313 41.62328125 66.28515625 40.9140625 C67.14604029 37.40466634 68.69297175 34.50429488 70.4375 31.375 C71.15828459 30.05378477 71.87829744 28.73214831 72.59765625 27.41015625 C73.17604248 26.35272217 73.17604248 26.35272217 73.76611328 25.27392578 C76.00868698 21.14109408 78.1888693 16.97537874 80.375 12.8125 C80.80353271 11.99894043 81.23206543 11.18538086 81.67358398 10.34716797 C83.48079053 6.91286317 85.27351778 3.47577069 87 0 C91.47915328 -0.02886338 95.95828291 -0.04675187 100.4375 -0.0625 C101.71689453 -0.07087891 102.99628906 -0.07925781 104.31445312 -0.08789062 C106.13686523 -0.09272461 106.13686523 -0.09272461 107.99609375 -0.09765625 C109.12200928 -0.10289307 110.2479248 -0.10812988 111.40795898 -0.11352539 C114 0 114 0 115 1 C115.10048523 3.73350748 115.13616261 6.44177892 115.12939453 9.17578125 C115.13202301 10.46106216 115.13202301 10.46106216 115.13470459 11.77230835 C115.13912417 14.6190592 115.13618475 17.46574847 115.1328125 20.3125 C115.13348551 22.28165702 115.13445551 24.25081397 115.13571167 26.2199707 C115.13718879 30.35270985 115.13503364 34.48542742 115.13037109 38.61816406 C115.1246738 43.92824521 115.12795273 49.23827581 115.13394356 54.5483551 C115.1375488 58.61625553 115.13641076 62.68414389 115.13381577 66.75204468 C115.13314639 68.71056118 115.13397527 70.66907876 115.13629532 72.62759399 C115.13882124 75.359832 115.13498211 78.09198697 115.12939453 80.82421875 C115.13141876 81.64191742 115.13344299 82.45961609 115.13552856 83.30209351 C115.11426246 88.88573754 115.11426246 88.88573754 114 90 C107.07 90 100.14 90 93 90 C92.67 71.85 92.34 53.7 92 35 C88.535 41.93 88.535 41.93 85 49 C83.01950409 52.70079912 81.02784829 56.3882865 79 60.0625 C77.9632762 61.95167726 76.92681698 63.84099974 75.890625 65.73046875 C75.39755859 66.62813965 74.90449219 67.52581055 74.39648438 68.45068359 C71.56641798 73.61703906 68.78521937 78.80936391 66 84 C60.39 84 54.78 84 49 84 C46.43863677 79.45564589 43.87946098 74.91020426 41.32617188 70.36132812 C40.45344973 68.80739429 39.57977727 67.25399373 38.70507812 65.70117188 C33.20010878 55.92293865 27.90196888 46.09610809 23 36 C22.15651912 42.53863723 21.87761394 48.88099275 21.9375 55.46875 C21.94128662 56.43026978 21.94507324 57.39178955 21.94897461 58.38244629 C21.96109247 61.42167871 21.97974517 64.46081161 22 67.5 C22.02649646 71.53124704 22.04649669 75.56244928 22.0625 79.59375 C22.07079834 80.52280151 22.07909668 81.45185303 22.08764648 82.40905762 C22.09260132 83.68674011 22.09260132 83.68674011 22.09765625 84.99023438 C22.10551147 86.1186676 22.10551147 86.1186676 22.11352539 87.26989746 C22 89 22 89 21 90 C19.52347336 90.09880797 18.04232764 90.13079245 16.5625 90.1328125 C15.22058594 90.13474609 15.22058594 90.13474609 13.8515625 90.13671875 C12.44003906 90.13091797 12.44003906 90.13091797 11 90.125 C9.58847656 90.13080078 9.58847656 90.13080078 8.1484375 90.13671875 C7.25382813 90.13542969 6.35921875 90.13414062 5.4375 90.1328125 C4.61121094 90.13168457 3.78492188 90.13055664 2.93359375 90.12939453 C1 90 1 90 0 89 C-0.09517803 86.23061034 -0.12554265 83.48622841 -0.11352539 80.71655273 C-0.11367142 79.84833893 -0.11381744 78.98012512 -0.1139679 78.08560181 C-0.11326846 75.20157414 -0.10547463 72.3176102 -0.09765625 69.43359375 C-0.09579218 67.43962133 -0.09436823 65.44564845 -0.09336853 63.45167542 C-0.08954248 58.19254298 -0.07971145 52.93343797 -0.06866455 47.67431641 C-0.0584523 42.31217825 -0.05387131 36.95003569 -0.04882812 31.58789062 C-0.03808926 21.05857973 -0.02049176 10.52929643 0 0 Z M93 7 C93 7.33 93 7.66 93 8 C94.65 8 96.3 8 98 8 C98 7.67 98 7.34 98 7 C96.35 7 94.7 7 93 7 Z M91 8 C91.33 8.66 91.66 9.32 92 10 C92.33 9.34 92.66 8.68 93 8 C92.34 8 91.68 8 91 8 Z M98 8 C98.66 8.66 99.32 9.32 100 10 C100 9.34 100 8.68 100 8 C99.34 8 98.68 8 98 8 Z M90 10 C88.87490984 13.0228032 88.87490984 13.0228032 88.625 16.4375 C87.99449339 20.0313877 87.24008938 21.27293467 85 24 C85 24.99 85 25.98 85 27 C84.34 27 83.68 27 83 27 C82.67 28.32 82.34 29.64 82 31 C81.01 31 80.02 31 79 31 C77.69882122 32.45777605 77.69882122 32.45777605 76.6171875 34.4453125 C76.17608643 35.18644287 75.73498535 35.92757324 75.28051758 36.69116211 C74.81669678 37.49432861 74.35287598 38.29749512 73.875 39.125 C72.89879214 40.77572046 71.92090419 42.42544841 70.94140625 44.07421875 C70.45172363 44.90228027 69.96204102 45.7303418 69.45751953 46.58349609 C66.97846367 50.69366274 64.3283422 54.6931429 61.64208984 58.67041016 C59.85921302 61.37305761 59 62.68461321 59 66 C58.34 66 57.68 66 57 66 C57 66.66 57 67.32 57 68 C55.515 68.495 55.515 68.495 54 69 C56.0745356 70.2236068 56.0745356 70.2236068 59 70 C59.33 70.66 59.66 71.32 60 72 C58.02 72.495 58.02 72.495 56 73 C56 73.99 56 74.98 56 76 C56.598125 75.690625 57.19625 75.38125 57.8125 75.0625 C60 74 60 74 63 73 C62.67 74.32 62.34 75.64 62 77 C62.66 77 63.32 77 64 77 C64.23074219 76.0203125 64.46148437 75.040625 64.69921875 74.03125 C66.01856678 69.42569447 68.33896764 65.57276757 70.8125 61.5 C71.23853516 60.77941406 71.66457031 60.05882812 72.10351562 59.31640625 C74.85967766 54.70473422 77.85357339 50.35291114 81 46 C83.61162352 41.73627523 86.09612362 37.38997944 87.8671875 32.70703125 C89.04031154 29.90366931 90.42748891 27.41107457 92 24.8125 C92.515625 23.95269531 93.03125 23.09289062 93.5625 22.20703125 C95 20 95 20 97 18 C96.195625 17.79375 95.39125 17.5875 94.5625 17.375 C93.716875 16.92125 92.87125 16.4675 92 16 C91.1875 12.875 91.1875 12.875 91 10 C90.67 10 90.34 10 90 10 Z M100 10 C100 11.98 100 13.96 100 16 C99.34 16 98.68 16 98 16 C98.33 16.66 98.66 17.32 99 18 C99.66 17.67 100.32 17.34 101 17 C101.83492354 14.57540213 101.83492354 14.57540213 102 12 C101.34 11.34 100.68 10.68 100 10 Z M59 78 C59.33 78.66 59.66 79.32 60 80 C60.66 79.34 61.32 78.68 62 78 C61.01 78 60.02 78 59 78 Z " fill="#DEDEDD" transform="translate(128,199)"/>
<path d="M0 0 C1.97909398 -0.02686553 3.95828971 -0.04633375 5.9375 -0.0625 C7.03964844 -0.07410156 8.14179688 -0.08570313 9.27734375 -0.09765625 C12 0 12 0 13 1 C14.21489306 8.3253552 14.34738431 15.71491803 14.5625 23.125 C14.59376984 24.15633057 14.59376984 24.15633057 14.62567139 25.20849609 C15.03629228 39.13713692 15.10861221 53.06604208 15.125 67 C15.1275882 68.03819885 15.13017639 69.07639771 15.13284302 70.14605713 C15.13866047 73.0974071 15.13713793 76.04864939 15.1328125 79 C15.13578087 80.34455765 15.13578087 80.34455765 15.1388092 81.71627808 C15.11530926 87.88469074 15.11530926 87.88469074 14 89 C7.07 89 0.14 89 -7 89 C-7 70.52 -7 52.04 -7 33 C-7.66 33 -8.32 33 -9 33 C-9 32.34 -9 31.68 -9 31 C-9.99 31.33 -10.98 31.66 -12 32 C-11.44010697 28.00987629 -10.24330232 25.4744948 -7.9375 22.1875 C-7.11572266 21.00220703 -7.11572266 21.00220703 -6.27734375 19.79296875 C-5.85582031 19.20128906 -5.43429688 18.60960937 -5 18 C-5.97839844 17.35224609 -5.97839844 17.35224609 -6.9765625 16.69140625 C-9 15 -9 15 -9.375 11.9375 C-9 9 -9 9 -7 7 C-5.33382885 6.95936168 -3.66611905 6.957279 -2 7 C-0.18585949 5.18585949 -0.3649546 2.45040946 0 0 Z M0 9 C0 10.98 0 12.96 0 15 C-0.66 15 -1.32 15 -2 15 C-1.67 15.66 -1.34 16.32 -1 17 C-0.34 16.67 0.32 16.34 1 16 C1.83492354 13.57540213 1.83492354 13.57540213 2 11 C1.34 10.34 0.68 9.68 0 9 Z " fill="#E4E4E3" transform="translate(228,200)"/>
<path d="M0 0 C0.495 1.485 0.495 1.485 1 3 C0 5 0 5 -2.4375 5.875 C-5.13605515 6.77050152 -5.13605515 6.77050152 -6.3125 9.125 C-6.539375 9.74375 -6.76625 10.3625 -7 11 C-7.66 11 -8.32 11 -9 11 C-9 12.32 -9 13.64 -9 15 C-8.01 15 -7.02 15 -6 15 C-6.804375 15.721875 -7.60875 16.44375 -8.4375 17.1875 C-11.0813228 20.08925673 -11.60257629 21.22447476 -12 25 C-12.495 26.485 -12.495 26.485 -13 28 C-13.99 28.33 -14.98 28.66 -16 29 C-16.495 29.66 -16.99 30.32 -17.5 31 C-19 33 -19 33 -22 34 C-24.33299825 34.03954234 -26.66708189 34.04401732 -29 34 C-29 34.66 -29 35.32 -29 36 C-27.68 36.33 -26.36 36.66 -25 37 C-24.17361624 39.89234315 -24 41.88742431 -24 45 C-23.01 45 -22.02 45 -21 45 C-20.67 43.68 -20.34 42.36 -20 41 C-18.68 41.66 -17.36 42.32 -16 43 C-18.64 44.98 -21.28 46.96 -24 49 C-23.67 50.32 -23.34 51.64 -23 53 C-22.87882812 53.67417969 -22.75765625 54.34835938 -22.6328125 55.04296875 C-20.79176993 62.81783316 -15.37216232 66.6254967 -9 71 C-7.68509008 71.7023063 -6.35862994 72.3865288 -5 73 C-3.68 72.01 -2.36 71.02 -1 70 C-1.99 69.01 -2.98 68.02 -4 67 C-0.21714033 64.47809356 2.55654707 64.37191699 7 65 C8.625 66.375 8.625 66.375 10 68 C13.10007201 69.20049407 13.10007201 69.20049407 16 70 C11.68520003 74.84803992 5.32152005 77.51712807 -1.08172607 78.23260498 C-5.73267911 78.45918688 -10.36369272 78.29534235 -15.01147461 78.05981445 C-17.45723576 77.93650497 -19.90200214 77.85275542 -22.34960938 77.77539062 C-23.91935825 77.71580143 -25.4890262 77.65403174 -27.05859375 77.58984375 C-27.78259872 77.56260727 -28.5066037 77.53537079 -29.25254822 77.50730896 C-33.21475122 77.29800171 -36.4154587 76.72304319 -40 75 C-40 74.01 -40 73.02 -40 72 C-40.5775 71.95875 -41.155 71.9175 -41.75 71.875 C-45.29179225 70.49763635 -46.28412281 68.30919173 -48 65 C-48.79518822 59.09288752 -47.18370292 53.47929126 -45 48 C-44.34 47.34 -43.68 46.68 -43 46 C-42.43410598 43.84960273 -41.94349979 41.67893377 -41.5 39.5 C-40.22222222 33.22222222 -40.22222222 33.22222222 -38 31 C-36.01751285 30.28293018 -34.01584651 29.61709587 -32 29 C-31.01 28.67 -30.02 28.34 -29 28 C-29 27.34 -29 26.68 -29 26 C-28.030625 25.195625 -27.06125 24.39125 -26.0625 23.5625 C-22.80624673 21.29315623 -22.80624673 21.29315623 -22 18 C-20.390625 16.5625 -20.390625 16.5625 -18.25 15 C-14.02034434 11.82263347 -9.96358052 8.49073514 -5.9375 5.0625 C-5.06109863 4.31709961 -5.06109863 4.31709961 -4.16699219 3.55664062 C-2.77673953 2.372566 -1.38818341 1.18649989 0 0 Z M-15 21 C-15.4125 21.433125 -15.825 21.86625 -16.25 22.3125 C-18 24 -18 24 -20.9375 25.4375 C-23.95106418 26.97503275 -25.79898846 28.4603713 -28 31 C-28 31.33 -28 31.66 -28 32 C-24.29706315 32.33663062 -22.60465619 32.47736015 -19.625 30.125 C-17.79751663 28.18106686 -17.79751663 28.18106686 -18 26 C-17.34 26 -16.68 26 -16 26 C-14.3553326 23.53673288 -14.3553326 23.53673288 -13 21 C-13.66 21 -14.32 21 -15 21 Z M-34 38 C-34.66 39.65 -35.32 41.3 -36 43 C-31.17557816 41.73053486 -31.17557816 41.73053486 -28 38 C-29.98 38 -31.96 38 -34 38 Z " fill="#F4A727" transform="translate(292,166)"/>
<path d="M0 0 C14.625 0 14.625 0 21 3 C21.02464705 8.67830078 21.04283462 14.35657069 21.05493164 20.03491211 C21.05997256 21.96818585 21.06680519 23.90145576 21.07543945 25.8347168 C21.08751565 28.60726872 21.09323057 31.37977041 21.09765625 34.15234375 C21.10281754 35.02213364 21.10797882 35.89192352 21.11329651 36.78807068 C21.11349185 38.85905814 21.06208168 40.92994324 21 43 C20.67 43.33 20.34 43.66 20 44 C13.4 44 6.8 44 0 44 C0 29.48 0 14.96 0 0 Z " fill="#F1A323" transform="translate(256,245)"/>
<path d="M0 0 C0.4125 1.134375 0.825 2.26875 1.25 3.4375 C2.56685398 7.09543384 2.56685398 7.09543384 5.1875 7.9375 C5.785625 7.958125 6.38375 7.97875 7 8 C7.99 6.68 8.98 5.36 10 4 C12.76276177 4.52268466 15.3260876 5.10869587 18 6 C17.67 8.97 17.34 11.94 17 15 C17.68707031 14.88140625 18.37414062 14.7628125 19.08203125 14.640625 C19.98308594 14.51171875 20.88414062 14.3828125 21.8125 14.25 C22.70582031 14.11078125 23.59914062 13.9715625 24.51953125 13.828125 C27 14 27 14 28.8359375 15.8203125 C30 18 30 18 29.8125 20.625 C29 23 29 23 27 25 C26.49200542 26.42071011 26.03949908 27.86175322 25.625 29.3125 C24.37963228 33.2319314 22.95755416 36.04244584 20 39 C19.34 39 18.68 39 18 39 C17.90203125 38.43152344 17.8040625 37.86304688 17.703125 37.27734375 C16.47588415 30.94012593 15.3118349 25.35707168 9.83203125 21.45703125 C4.31465051 18.40322517 -0.71854803 16.7572667 -7 18 C-11.40900765 19.5878594 -14.79490124 21.56877464 -18 25 C-21 24 -21 24 -22.75 21.1875 C-24.10005595 17.74485733 -24.00282807 17.30933263 -23 14 C-23.27313343 11.65885633 -23.59802999 9.32249342 -24 7 C-21.75 5.375 -21.75 5.375 -19 4 C-16.9375 4.6875 -16.9375 4.6875 -15 6 C-12.26859824 7.48985551 -11.19398323 8 -8 8 C-7.87625 6.865625 -7.7525 5.73125 -7.625 4.5625 C-7.315625 2.7990625 -7.315625 2.7990625 -7 1 C-4.53721199 -0.231394 -2.7204945 -0.07159196 0 0 Z " fill="#D4D4D4" transform="translate(181,184)"/>
<path d="M0 0 C4.47915328 -0.02886338 8.95828291 -0.04675187 13.4375 -0.0625 C14.71689453 -0.07087891 15.99628906 -0.07925781 17.31445312 -0.08789062 C19.13686523 -0.09272461 19.13686523 -0.09272461 20.99609375 -0.09765625 C22.12200928 -0.10289307 23.2479248 -0.10812988 24.40795898 -0.11352539 C27 0 27 0 28 1 C28.14115161 3.67058851 28.04247107 6.32432238 28 9 C27.34 9.33 26.68 9.66 26 10 C25.505 6.04 25.505 6.04 25 2 C21.04 1.67 17.08 1.34 13 1 C13 3.31 13 5.62 13 8 C10.03 8 7.06 8 4 8 C3.9071875 10.1965625 3.9071875 10.1965625 3.8125 12.4375 C3.27351475 18.16217664 1.11216004 22.24563004 -2 27 C-2.66 27 -3.32 27 -4 27 C-4.33 28.32 -4.66 29.64 -5 31 C-5.99 31 -6.98 31 -8 31 C-8.22042969 31.65484375 -8.44085938 32.3096875 -8.66796875 32.984375 C-10.45930262 37.03982881 -12.86097423 40.56643368 -15.3125 44.25 C-19.12622453 50.0522518 -22.75869065 55.85268917 -26 62 C-27.98 60.35 -29.96 58.7 -32 57 C-31.67 56.34 -31.34 55.68 -31 55 C-30.34 55 -29.68 55 -29 55 C-27.68 52.36 -26.36 49.72 -25 47 C-24.34 47 -23.68 47 -23 47 C-23 45.68 -23 44.36 -23 43 C-22.34 43 -21.68 43 -21 43 C-20.90589844 42.31164062 -20.81179687 41.62328125 -20.71484375 40.9140625 C-19.85395971 37.40466634 -18.30702825 34.50429488 -16.5625 31.375 C-15.84171541 30.05378477 -15.12170256 28.73214831 -14.40234375 27.41015625 C-14.01675293 26.7052002 -13.63116211 26.00024414 -13.23388672 25.27392578 C-10.99131302 21.14109408 -8.8111307 16.97537874 -6.625 12.8125 C-6.19646729 11.99894043 -5.76793457 11.18538086 -5.32641602 10.34716797 C-3.51920947 6.91286317 -1.72648222 3.47577069 0 0 Z " fill="#CFCFCE" transform="translate(215,199)"/>
<path d="M0 0 C1.9375 0.5625 1.9375 0.5625 4 2 C4.36526253 4.32854865 4.69350684 6.66298962 5 9 C6.18239051 11.44327997 7.58736371 13.67598545 9 16 C9 16.66 9 17.32 9 18 C9.99 18 10.98 18 12 18 C18.99961653 26.72940682 25 39.01579156 25 50 C24.34 50 23.68 50 23 50 C21.68373308 53.61973402 21 56.09567131 21 60 C18.5625 61.625 18.5625 61.625 16 63 C15.67 63.66 15.34 64.32 15 65 C14.01 65 13.02 65 12 65 C9 60.77777778 9 60.77777778 9 58 C10.485 58.495 10.485 58.495 12 59 C12 59.66 12 60.32 12 61 C13.98 60.505 13.98 60.505 16 60 C16.33 57.69 16.66 55.38 17 53 C17.66 53 18.32 53 19 53 C19.85387105 49.69432511 19.85387105 49.69432511 20 46 C18.16366629 43.55155506 16.2184642 42.1577797 13.75 40.375 C13.1725 39.92125 12.595 39.4675 12 39 C12 38.34 12 37.68 12 37 C10.68 37 9.36 37 8 37 C7.87625 36.360625 7.7525 35.72125 7.625 35.0625 C7.41875 34.381875 7.2125 33.70125 7 33 C6.34 32.67 5.68 32.34 5 32 C5 31.01 5 30.02 5 29 C3.35 29 1.7 29 0 29 C-0.66 25.7 -1.32 22.4 -2 19 C-0.68 19.99 0.64 20.98 2 22 C2 22.66 2 23.32 2 24 C2.66 24 3.32 24 4 24 C4 24.66 4 25.32 4 26 C4.66 26 5.32 26 6 26 C7.625 27.5 7.625 27.5 9 29 C8.2884375 27.63875 8.2884375 27.63875 7.5625 26.25 C6 23 6 23 5.5625 21.0625 C4.65050298 17.71851091 2.76982405 14.96873712 1 12 C-1.64 13.65 -4.28 15.3 -7 17 C-7 16.01 -7 15.02 -7 14 C-6.34 13.67 -5.68 13.34 -5 13 C-4.67 12.34 -4.34 11.68 -4 11 C-3.67 11 -3.34 11 -3 11 C-1.41678933 5.52225234 -1.41678933 5.52225234 0 0 Z M19 56 C19 59 19 59 19 59 Z " fill="#F5AD33" transform="translate(310,166)"/>
<path d="M0 0 C0.44140625 2.20703125 0.44140625 2.20703125 0.5625 4.8125 C0.82115675 8.62631116 1.45924206 11.47826756 3 15 C2.67 15.66 2.34 16.32 2 17 C2.99 17 3.98 17 5 17 C4.690625 17.5775 4.38125 18.155 4.0625 18.75 C3.07416636 20.84294184 2.4831387 22.74535275 2 25 C-3.53846154 25.36923077 -3.53846154 25.36923077 -5.875 23.5 C-6.24625 23.005 -6.6175 22.51 -7 22 C-7.33 22.33 -7.66 22.66 -8 23 C-9.51928038 23.07179964 -11.04167482 23.08392007 -12.5625 23.0625 C-13.38878906 23.05347656 -14.21507812 23.04445312 -15.06640625 23.03515625 C-16.02353516 23.01775391 -16.02353516 23.01775391 -17 23 C-18.28056403 15.06050304 -18.15449017 8.22280074 -14.4375 0.9375 C-9.96783684 -2.61530918 -4.74146339 -3.16097559 0 0 Z " fill="#F7A723" transform="translate(264,212)"/>
<path d="M0 0 C2.35448165 2.55068845 2.98327924 3.71017358 3.1875 7.25 C3.125625 8.1575 3.06375 9.065 3 10 C4.65 10 6.3 10 8 10 C8 10.99 8 11.98 8 13 C8.99 13.33 9.98 13.66 11 14 C11 15.32 11 16.64 11 18 C12.32 18 13.64 18 15 18 C16.9375 19.6875 16.9375 19.6875 19 22 C19.9075 22.9075 20.815 23.815 21.75 24.75 C22.4925 25.4925 23.235 26.235 24 27 C23.34 29.31 22.68 31.62 22 34 C21.34 34 20.68 34 20 34 C19.67 36.31 19.34 38.62 19 41 C17.02 41.495 17.02 41.495 15 42 C14.67 41.34 14.34 40.68 14 40 C13.01 39.67 12.02 39.34 11 39 C10.3125 36.9375 10.3125 36.9375 10 35 C9.34 35 8.68 35 8 35 C6.61992355 32.60786749 5.97357982 30.82260739 5.5625 28.0625 C5.19288875 24.96228523 5.19288875 24.96228523 3.4375 22.5625 C1.57563959 19.24353144 1.93168478 16.75733721 2 13 C0.98263229 10.23857335 0.63829259 9.31914629 -2 8 C-1.47731534 5.23723823 -0.89130413 2.6739124 0 0 Z " fill="#F4A624" transform="translate(307,185)"/>
<path d="M0 0 C1.32 0 2.64 0 4 0 C5 3 5 3 3.98828125 5.58203125 C3.43527344 6.64808594 2.88226563 7.71414062 2.3125 8.8125 C1.85133789 9.70763306 1.85133789 9.70763306 1.38085938 10.62084961 C-3.13511365 19.30716338 -7.89057181 27.87035353 -12.60351562 36.45068359 C-15.43358202 41.61703906 -18.21478063 46.80936391 -21 52 C-26.61 52 -32.22 52 -38 52 C-38.33 51.34 -38.66 50.68 -39 50 C-34.71 50.33 -30.42 50.66 -26 51 C-26 50.34 -26 49.68 -26 49 C-27.65 49 -29.3 49 -31 49 C-31.33 48.34 -31.66 47.68 -32 47 C-31.34 46.34 -30.68 45.68 -30 45 C-28.68 45 -27.36 45 -26 45 C-26.33 43.68 -26.66 42.36 -27 41 C-26.01 41 -25.02 41 -24 41 C-24.33 42.32 -24.66 43.64 -25 45 C-24.34 45 -23.68 45 -23 45 C-23.10828125 43.70449219 -23.10828125 43.70449219 -23.21875 42.3828125 C-22.95265929 38.26790978 -21.74111666 36.31425211 -19.5 32.875 C-18.96294434 32.038479 -18.96294434 32.038479 -18.41503906 31.18505859 C-17.29222354 29.44592031 -16.14963128 27.72150919 -15 26 C-14.28328125 24.92234375 -13.5665625 23.8446875 -12.828125 22.734375 C-11.47441008 20.70889177 -10.11778248 18.68535121 -8.7578125 16.6640625 C-5.28884332 11.40664699 -1.99829858 5.99489574 0 0 Z M-28 46 C-27.67 46.66 -27.34 47.32 -27 48 C-26.34 47.34 -25.68 46.68 -25 46 C-25.99 46 -26.98 46 -28 46 Z " fill="#D7D7D7" transform="translate(215,231)"/>
<path d="M0 0 C0.495 1.485 0.495 1.485 1 3 C0 5 0 5 -2.4375 5.875 C-5.13605515 6.77050152 -5.13605515 6.77050152 -6.3125 9.125 C-6.539375 9.74375 -6.76625 10.3625 -7 11 C-7.66 11 -8.32 11 -9 11 C-9 12.32 -9 13.64 -9 15 C-8.01 15 -7.02 15 -6 15 C-6.804375 15.721875 -7.60875 16.44375 -8.4375 17.1875 C-11.0813228 20.08925673 -11.60257629 21.22447476 -12 25 C-12.33 25.99 -12.66 26.98 -13 28 C-13.99 28.33 -14.98 28.66 -16 29 C-16.495 29.66 -16.99 30.32 -17.5 31 C-19 33 -19 33 -22 34 C-24.33299825 34.03954234 -26.66708189 34.04401732 -29 34 C-29 34.66 -29 35.32 -29 36 C-28.34 36.33 -27.68 36.66 -27 37 C-27 39.31 -27 41.62 -27 44 C-27.33 43.34 -27.66 42.68 -28 42 C-29.65 42 -31.3 42 -33 42 C-33 42.66 -33 43.32 -33 44 C-34.98 44.495 -34.98 44.495 -37 45 C-37.495 43.515 -37.495 43.515 -38 42 C-38.99 42 -39.98 42 -41 42 C-41.33 42.99 -41.66 43.98 -42 45 C-41.70640699 42.9937811 -41.36270588 40.99488234 -41 39 C-40.79375 37.783125 -40.5875 36.56625 -40.375 35.3125 C-39 32 -39 32 -35.5625 30.125 C-34.386875 29.75375 -33.21125 29.3825 -32 29 C-31.01 28.67 -30.02 28.34 -29 28 C-29 27.34 -29 26.68 -29 26 C-28.030625 25.195625 -27.06125 24.39125 -26.0625 23.5625 C-22.80624673 21.29315623 -22.80624673 21.29315623 -22 18 C-20.390625 16.5625 -20.390625 16.5625 -18.25 15 C-14.02034434 11.82263347 -9.96358052 8.49073514 -5.9375 5.0625 C-5.06109863 4.31709961 -5.06109863 4.31709961 -4.16699219 3.55664062 C-2.77673953 2.372566 -1.38818341 1.18649989 0 0 Z M-15 21 C-15.4125 21.433125 -15.825 21.86625 -16.25 22.3125 C-18 24 -18 24 -20.9375 25.4375 C-23.95106418 26.97503275 -25.79898846 28.4603713 -28 31 C-28 31.33 -28 31.66 -28 32 C-24.29706315 32.33663062 -22.60465619 32.47736015 -19.625 30.125 C-17.79751663 28.18106686 -17.79751663 28.18106686 -18 26 C-17.34 26 -16.68 26 -16 26 C-14.3553326 23.53673288 -14.3553326 23.53673288 -13 21 C-13.66 21 -14.32 21 -15 21 Z M-34 38 C-34.66 39.65 -35.32 41.3 -36 43 C-31.17557816 41.73053486 -31.17557816 41.73053486 -28 38 C-29.98 38 -31.96 38 -34 38 Z " fill="#DDA040" transform="translate(292,166)"/>
<path d="M0 0 C1.98 0 3.96 0 6 0 C10 4.84210526 10 4.84210526 10 8 C10.66 8 11.32 8 12 8 C12.1546875 7.13375 12.1546875 7.13375 12.3125 6.25 C13.13546261 3.55666781 14.00371406 1.99628594 16 0 C18.625 -0.3125 18.625 -0.3125 21 0 C22 1 22 1 22.11352539 2.94946289 C22.10828857 3.7821167 22.10305176 4.61477051 22.09765625 5.47265625 C22.09443359 6.37177734 22.09121094 7.27089844 22.08789062 8.19726562 C22.07951172 9.14279297 22.07113281 10.08832031 22.0625 11.0625 C22.05798828 12.01189453 22.05347656 12.96128906 22.04882812 13.93945312 C22.0370011 16.29303065 22.02052025 18.64648477 22 21 C20.02 21 18.04 21 16 21 C15.67 18.36 15.34 15.72 15 13 C13.515 15.475 13.515 15.475 12 18 C8.125 16.25 8.125 16.25 7 14 C6.34 16.31 5.68 18.62 5 21 C3.35 21 1.7 21 0 21 C0 14.07 0 7.14 0 0 Z " fill="#B1B1B0" transform="translate(238,295)"/>
<path d="M0 0 C2.0625 -0.04125 4.125 -0.0825 6.25 -0.125 C7.99023438 -0.15980469 7.99023438 -0.15980469 9.765625 -0.1953125 C12.84681133 -0.00925052 14.4785909 0.28304047 17 2 C18.53214888 5.06429776 18.22938548 7.6165642 18 11 C16.5 13.9375 16.5 13.9375 15 16 C15.66 16 16.32 16 17 16 C17.66 17.65 18.32 19.3 19 21 C16 22 16 22 13.625 21.375 C10.46620131 19.72039116 8.40393846 17.60999033 6 15 C6 16.98 6 18.96 6 21 C4.02 21 2.04 21 0 21 C0 14.07 0 7.14 0 0 Z M6 6 C6 7.32 6 8.64 6 10 C7.65 10 9.3 10 11 10 C11 8.68 11 7.36 11 6 C9.35 6 7.7 6 6 6 Z " fill="#C98D2A" transform="translate(172,295)"/>
<path d="M0 0 C4.95366586 0.03216666 8.1487871 0.6487871 11.75 4.25 C11.98961213 8.48314767 12.07488647 11.61736489 9.75 15.25 C10.74 16.735 10.74 16.735 11.75 18.25 C11.75 19.24 11.75 20.23 11.75 21.25 C8.9375 21.5 8.9375 21.5 5.75 21.25 C3.875 19.375 3.875 19.375 2.75 17.25 C2.75 16.59 2.75 15.93 2.75 15.25 C1.76 15.25 0.77 15.25 -0.25 15.25 C-0.25 17.23 -0.25 19.21 -0.25 21.25 C-2.23 21.25 -4.21 21.25 -6.25 21.25 C-6.27888146 17.93751813 -6.29675799 14.62506833 -6.3125 11.3125 C-6.32087891 10.36697266 -6.32925781 9.42144531 -6.33789062 8.44726562 C-6.34111328 7.54814453 -6.34433594 6.64902344 -6.34765625 5.72265625 C-6.35289307 4.89000244 -6.35812988 4.05734863 -6.36352539 3.19946289 C-6.13111403 -0.79151501 -3.39593518 0.05448024 0 0 Z M-0.25 6.25 C-0.25 7.57 -0.25 8.89 -0.25 10.25 C1.4 10.25 3.05 10.25 4.75 10.25 C5.08 8.93 5.41 7.61 5.75 6.25 C3.77 6.25 1.79 6.25 -0.25 6.25 Z " fill="#CFCFCF" transform="translate(337.25,294.75)"/>
<path d="M0 0 C3.50313626 1.4012545 4.74726213 2.62931779 6.875 5.75 C8.26442204 9.76388589 8.18482882 11.92715094 7 16 C5.125 18.9375 5.125 18.9375 2 21 C-3.3080301 21.98031187 -7.49683709 21.88421347 -12.1875 19.125 C-14.74177351 14.72108016 -14.90693671 10.97589598 -14 6 C-10.35892167 0.0529054 -6.73500379 -0.69940424 0 0 Z M-7.9375 7.25 C-9.20560056 8.94645283 -9.20560056 8.94645283 -8.8125 11 C-7.97340108 13.25737382 -7.97340108 13.25737382 -6 16 C-3.5 16.41666667 -3.5 16.41666667 -1 16 C1.32483785 14.11624325 1.32483785 14.11624325 1.1875 11 C1.20079609 8.07613397 1.20079609 8.07613397 0 6 C-4.18966713 5.65314472 -4.18966713 5.65314472 -7.9375 7.25 Z " fill="#C9CACA" transform="translate(278,295)"/>
<path d="M0 0 C5.28 0 10.56 0 16 0 C16 1.98 16 3.96 16 6 C12.7 6 9.4 6 6 6 C8.88395737 7.44197868 11.82430479 7.58833581 15 8 C15 9.65 15 11.3 15 13 C11.52176885 14.15941038 9.54104422 13.70820884 6 13 C9.00617269 16.00617269 11.82381598 15.59585316 16 16 C16 17.65 16 19.3 16 21 C10.72 21 5.44 21 0 21 C0 14.07 0 7.14 0 0 Z " fill="#BD872F" transform="translate(128,295)"/>
<path d="M0 0 C1.65 0 3.3 0 5 0 C6 1 6 1 6.0625 4.5625 C6.041875 5.696875 6.02125 6.83125 6 8 C7.98 8 9.96 8 12 8 C12 5.36 12 2.72 12 0 C13.66611905 -0.042721 15.33382885 -0.04063832 17 0 C18 1 18 1 18.11352539 2.94946289 C18.10828857 3.7821167 18.10305176 4.61477051 18.09765625 5.47265625 C18.09443359 6.37177734 18.09121094 7.27089844 18.08789062 8.19726562 C18.07951172 9.14279297 18.07113281 10.08832031 18.0625 11.0625 C18.05798828 12.01189453 18.05347656 12.96128906 18.04882812 13.93945312 C18.0370011 16.29303065 18.02052025 18.64648477 18 21 C16.02 21 14.04 21 12 21 C12 18.36 12 15.72 12 13 C10.02 13 8.04 13 6 13 C6 15.64 6 18.28 6 21 C4.02 21 2.04 21 0 21 C0 14.07 0 7.14 0 0 Z " fill="#D69021" transform="translate(215,295)"/>
<path d="M0 0 C5.28 0 10.56 0 16 0 C16 1.98 16 3.96 16 6 C12.37 6 8.74 6 5 6 C5 6.66 5 7.32 5 8 C8.3 8 11.6 8 15 8 C15 9.65 15 11.3 15 13 C11.7 13 8.4 13 5 13 C5 13.99 5 14.98 5 16 C5.99 15.67 6.98 15.34 8 15 C10.70123106 15.16011121 13.31875231 15.60440608 16 16 C16 17.65 16 19.3 16 21 C10.72 21 5.44 21 0 21 C0 14.07 0 7.14 0 0 Z " fill="#ACACAB" transform="translate(311,295)"/>
<path d="M0 0 C1.4540625 0.0309375 1.4540625 0.0309375 2.9375 0.0625 C4.27662585 3.18504943 5.60780658 6.31092358 6.9375 9.4375 C7.3190625 10.32695312 7.700625 11.21640625 8.09375 12.1328125 C8.4546875 12.98359375 8.815625 13.834375 9.1875 14.7109375 C9.52265625 15.49645996 9.8578125 16.28198242 10.203125 17.09130859 C10.9375 19.0625 10.9375 19.0625 10.9375 21.0625 C7.80400268 22.10699911 6.94781744 21.99673645 3.9375 21.0625 C3.9375 19.7425 3.9375 18.4225 3.9375 17.0625 C1.2975 17.0625 -1.3425 17.0625 -4.0625 17.0625 C-4.3925 18.3825 -4.7225 19.7025 -5.0625 21.0625 C-7.0425 21.0625 -9.0225 21.0625 -11.0625 21.0625 C-10.364397 16.55973568 -8.77574524 12.50671829 -7.0625 8.3125 C-6.65257812 7.28576172 -6.65257812 7.28576172 -6.234375 6.23828125 C-3.74523247 0.07643332 -3.74523247 0.07643332 0 0 Z M-1.0625 9.0625 C-1.3925 10.0525 -1.7225 11.0425 -2.0625 12.0625 C-1.4025 12.0625 -0.7425 12.0625 -0.0625 12.0625 C-0.3925 11.0725 -0.7225 10.0825 -1.0625 9.0625 Z " fill="#BF8A2F" transform="translate(158.0625,294.9375)"/>
<path d="M0 0 C3.9285121 2.94424436 6.2584475 6.74018625 7.79296875 11.34375 C8.34946973 17.79916132 7.47907053 22.89743107 3.79296875 28.34375 C0.0592232 31.89576457 -3.53581884 33.61957473 -8.70703125 33.65625 C-9.86203125 33.553125 -11.01703125 33.45 -12.20703125 33.34375 C-12.70203125 31.85875 -12.70203125 31.85875 -13.20703125 30.34375 C-8.25703125 29.84875 -8.25703125 29.84875 -3.20703125 29.34375 C-3.20703125 28.68375 -3.20703125 28.02375 -3.20703125 27.34375 C-1.33203125 25.21875 -1.33203125 25.21875 0.79296875 23.34375 C1.45296875 23.34375 2.11296875 23.34375 2.79296875 23.34375 C3.82514401 17.05121169 4.31070927 12.97213484 0.79296875 7.34375 C0.79296875 6.68375 0.79296875 6.02375 0.79296875 5.34375 C0.13296875 5.34375 -0.52703125 5.34375 -1.20703125 5.34375 C-1.20703125 4.68375 -1.20703125 4.02375 -1.20703125 3.34375 C-7.20479231 1.84430974 -13.20927019 1.84430974 -19.20703125 3.34375 C-19.20703125 4.00375 -19.20703125 4.66375 -19.20703125 5.34375 C-19.86703125 5.34375 -20.52703125 5.34375 -21.20703125 5.34375 C-21.86703125 6.66375 -22.52703125 7.98375 -23.20703125 9.34375 C-23.86703125 9.34375 -24.52703125 9.34375 -25.20703125 9.34375 C-25.51953125 7.15625 -25.51953125 7.15625 -25.20703125 4.34375 C-18.57449261 -3.80479748 -9.06088413 -5.06396718 0 0 Z " fill="#B5B5B4" transform="translate(189.20703125,205.65625)"/>
<path d="M0 0 C2.4375 1 2.4375 1 4 2 C3.67 3.65 3.34 5.3 3 7 C0.69 7 -1.62 7 -4 7 C-2.329375 7.680625 -2.329375 7.680625 -0.625 8.375 C3 10 3 10 5 12 C4.53846154 18.46153846 4.53846154 18.46153846 2 21 C-0.49609375 21.265625 -0.49609375 21.265625 -3.4375 21.25 C-4.88962891 21.25773437 -4.88962891 21.25773437 -6.37109375 21.265625 C-9 21 -9 21 -12 19 C-12 18.01 -12 17.02 -12 16 C-11.34 16 -10.68 16 -10 16 C-10 15.34 -10 14.68 -10 14 C-9.01 14 -8.02 14 -7 14 C-7 14.66 -7 15.32 -7 16 C-5.35 16 -3.7 16 -2 16 C-2 15.01 -2 14.02 -2 13 C-3.11375 13.12375 -3.11375 13.12375 -4.25 13.25 C-7 13 -7 13 -9.375 11.4375 C-11 9 -11 9 -10.9375 5.375 C-9.24947165 -0.70190205 -5.62441351 -0.39469568 0 0 Z " fill="#D6D5D6" transform="translate(364,295)"/>
<path d="M0 0 C1.98 0 3.96 0 6 0 C7.32 3.3 8.64 6.6 10 10 C11.65 6.7 13.3 3.4 15 0 C16.98 0 18.96 0 21 0 C18.96192707 7.1178153 16.59655258 14.06707281 14 21 C11.69 21 9.38 21 7 21 C6.01315119 18.62794139 5.0354245 16.25276513 4.0625 13.875 C3.78470703 13.20984375 3.50691406 12.5446875 3.22070312 11.859375 C1.61444624 7.91146651 0.5247835 4.26469631 0 0 Z " fill="#C7C7C7" transform="translate(287,295)"/>
<path d="M0 0 C1.625 1.375 1.625 1.375 3 3 C6.10007201 4.20049407 6.10007201 4.20049407 9 5 C4.67780175 9.85435278 -1.68243991 12.52085782 -8.0960083 13.23260498 C-12.77882358 13.45888607 -17.44169805 13.29575871 -22.12133789 13.05981445 C-24.58906986 12.93616872 -27.05580958 12.85266406 -29.52539062 12.77539062 C-31.10165051 12.7158267 -32.67782905 12.65405994 -34.25390625 12.58984375 C-34.9882338 12.56260727 -35.72256134 12.53537079 -36.47914124 12.50730896 C-40.13346749 12.31430837 -41.88403238 12.07731175 -45 10 C-35.76 10 -26.52 10 -17 10 C-17.66 9.01 -18.32 8.02 -19 7 C-18.67 6.01 -18.34 5.02 -18 4 C-16.35 5.32 -14.7 6.64 -13 8 C-11.35 7.34 -9.7 6.68 -8 6 C-8.99 4.68 -9.98 3.36 -11 2 C-7.21714033 -0.52190644 -4.44345293 -0.62808301 0 0 Z " fill="#DE9D32" transform="translate(299,231)"/>
<path d="M0 0 C2 3 2 3 1.75 5.5625 C1 8 1 8 -1 10 C-1.50799458 11.42071011 -1.96050092 12.86175322 -2.375 14.3125 C-3.62036772 18.2319314 -5.04244584 21.04244584 -8 24 C-8.66 24 -9.32 24 -10 24 C-12.11161731 14.58997722 -12.11161731 14.58997722 -13 10 C-12.34 9.67 -11.68 9.34 -11 9 C-10.53974647 7.16934645 -10.53974647 7.16934645 -10.25 5.0625 C-9.76171875 2.8828125 -9.76171875 2.8828125 -9 1 C-5.37742746 -0.92690028 -3.91044031 -1.3034801 0 0 Z " fill="#CECECE" transform="translate(209,199)"/>
<path d="M0 0 C1.58206057 0.00667536 3.16410534 0.0186375 4.74609375 0.03515625 C5.55240234 0.03966797 6.35871094 0.04417969 7.18945312 0.04882812 C9.18753131 0.06065107 11.18557158 0.07858711 13.18359375 0.09765625 C13.18359375 2.07765625 13.18359375 4.05765625 13.18359375 6.09765625 C11.20359375 6.09765625 9.22359375 6.09765625 7.18359375 6.09765625 C7.18359375 11.04765625 7.18359375 15.99765625 7.18359375 21.09765625 C5.20359375 21.09765625 3.22359375 21.09765625 1.18359375 21.09765625 C1.18359375 16.14765625 1.18359375 11.19765625 1.18359375 6.09765625 C-0.79640625 6.09765625 -2.77640625 6.09765625 -4.81640625 6.09765625 C-4.85912725 4.4315372 -4.85704457 2.7638274 -4.81640625 1.09765625 C-3.81640625 0.09765625 -3.81640625 0.09765625 0 0 Z " fill="#A0742D" transform="translate(197.81640625,294.90234375)"/>
<path d="M0 0 C2.375 0.3125 2.375 0.3125 3.375 1.3125 C3.46169432 2.8012186 3.48203494 4.293945 3.47265625 5.78515625 C3.46943359 6.68427734 3.46621094 7.58339844 3.46289062 8.50976562 C3.45451172 9.45529297 3.44613281 10.40082031 3.4375 11.375 C3.43298828 12.32439453 3.42847656 13.27378906 3.42382812 14.25195312 C3.4120011 16.60553065 3.39552025 18.95898477 3.375 21.3125 C1.395 21.3125 -0.585 21.3125 -2.625 21.3125 C-2.955 18.6725 -3.285 16.0325 -3.625 13.3125 C-4.615 13.6425 -5.605 13.9725 -6.625 14.3125 C-7.285 12.6625 -7.945 11.0125 -8.625 9.3125 C-7.965 9.3125 -7.305 9.3125 -6.625 9.3125 C-6.521875 8.57 -6.41875 7.8275 -6.3125 7.0625 C-5.30444774 3.03029097 -4.36595077 0.51975604 0 0 Z " fill="#C1C1C0" transform="translate(256.625,294.6875)"/>
<path d="M0 0 C1.32 0 2.64 0 4 0 C5 3 5 3 3.8125 5.8984375 C3.214375 7.04570312 2.61625 8.19296875 2 9.375 C1.68474365 9.98553223 1.3694873 10.59606445 1.04467773 11.22509766 C0.04208066 13.15681601 -0.97638976 15.07934199 -2 17 C-2.33757324 17.63550781 -2.67514648 18.27101562 -3.02294922 18.92578125 C-4.99423482 22.62876986 -6.98819642 26.3188275 -9 30 C-9.99 29.34 -10.98 28.68 -12 28 C-12.99 28 -13.98 28 -15 28 C-13.72341628 24.53498703 -12.23378941 21.65160449 -10.125 18.625 C-6.13275677 12.77295565 -2.25148093 6.75444279 0 0 Z " fill="#C2C1C1" transform="translate(215,231)"/>
<path d="M0 0 C0.66 1.32 1.32 2.64 2 4 C1.01 4.495 1.01 4.495 0 5 C0 6.65 0 8.3 0 10 C0.99 10.33 1.98 10.66 3 11 C2.67 9.35 2.34 7.7 2 6 C6.43076923 2.92307692 6.43076923 2.92307692 9.3125 3.3125 C10.1478125 3.6528125 10.1478125 3.6528125 11 4 C11 4.66 11 5.32 11 6 C9.02 6.99 9.02 6.99 7 8 C7.99 8 8.98 8 10 8 C10.66 8.33 11.32 8.66 12 9 C12 9.66 12 10.32 12 11 C10.35 11 8.7 11 7 11 C7 11.99 7 12.98 7 14 C8.65 14.33 10.3 14.66 12 15 C12 15.66 12 16.32 12 17 C1.95883777 17.62324455 1.95883777 17.62324455 -1.5 15.375 C-3.21330037 12.66227441 -4.67241426 9.92068863 -6 7 C-4.68 6.67 -3.36 6.34 -2 6 C-1.855625 5.195625 -1.71125 4.39125 -1.5625 3.5625 C-1 1 -1 1 0 0 Z " fill="#E5E4DE" transform="translate(177,265)"/>
<path d="M0 0 C3.96 0 7.92 0 12 0 C12 0.33 12 0.66 12 1 C10.906875 1.309375 9.81375 1.61875 8.6875 1.9375 C6.44592006 2.58337897 4.2130649 3.2623117 2 4 C2 14.89 2 25.78 2 37 C2.99 37.33 3.98 37.66 5 38 C5.33 38.33 5.66 38.66 6 39 C9.63 39.33 13.26 39.66 17 40 C16.67 27.46 16.34 14.92 16 2 C16.66 2 17.32 2 18 2 C18 14.87 18 27.74 18 41 C11.73 41 5.46 41 -1 41 C-0.67 27.47 -0.34 13.94 0 0 Z " fill="#F3AD37" transform="translate(258,247)"/>
<path d="M0 0 C0.99 0 1.98 0 3 0 C3.33 1.32 3.66 2.64 4 4 C4.66 3.67 5.32 3.34 6 3 C8.6723621 2.86584528 11.32250488 2.95681459 14 3 C14 4.65 14 6.3 14 8 C10.7 8 7.4 8 4 8 C4 8.99 4 9.98 4 11 C4.99 10.67 5.98 10.34 7 10 C9.35188447 10.59793673 11.68925595 11.25881795 14 12 C14 12.99 14 13.98 14 15 C9.38 15 4.76 15 0 15 C0 10.05 0 5.1 0 0 Z " fill="#D7D8D7" transform="translate(312,300)"/>
<path d="M0 0 C1.65 0 3.3 0 5 0 C6 1 6 1 6.0625 4.5625 C6.041875 5.696875 6.02125 6.83125 6 8 C7.98 8 9.96 8 12 8 C12 5.36 12 2.72 12 0 C13.66611905 -0.042721 15.33382885 -0.04063832 17 0 C18 1 18 1 18.11352539 2.94946289 C18.10828857 3.7821167 18.10305176 4.61477051 18.09765625 5.47265625 C18.09443359 6.37177734 18.09121094 7.27089844 18.08789062 8.19726562 C18.07951172 9.14279297 18.07113281 10.08832031 18.0625 11.0625 C18.05798828 12.01189453 18.05347656 12.96128906 18.04882812 13.93945312 C18.0370011 16.29303065 18.02052025 18.64648477 18 21 C16.02 21 14.04 21 12 21 C12 18.36 12 15.72 12 13 C12.66 13.33 13.32 13.66 14 14 C14.33 14.99 14.66 15.98 15 17 C15.33 12.05 15.66 7.1 16 2 C15.01 2 14.02 2 13 2 C13 4.64 13 7.28 13 10 C6.84765625 10.09765625 6.84765625 10.09765625 5 10 C4 9 4 9 3.9375 5.4375 C3.958125 4.303125 3.97875 3.16875 4 2 C3.01 2 2.02 2 1 2 C1 7.61 1 13.22 1 19 C0.67 19 0.34 19 0 19 C0 12.73 0 6.46 0 0 Z " fill="#BA8937" transform="translate(215,295)"/>
<path d="M0 0 C4.29 0 8.58 0 13 0 C13.33 0.66 13.66 1.32 14 2 C10.04 2 6.08 2 2 2 C2 15.2 2 28.4 2 42 C7.94 42.33 13.88 42.66 20 43 C20 43.33 20 43.66 20 44 C13.4 44 6.8 44 0 44 C0 29.48 0 14.96 0 0 Z " fill="#B58331" transform="translate(256,245)"/>
<path d="M0 0 C-0.41693309 4.8642194 -2.32748692 6.89876673 -6 10 C-8.98298882 11.67047374 -11.76038963 12.92012988 -15 14 C-15 14.66 -15 15.32 -15 16 C-17.90548882 18.04169485 -19.40142046 19 -23 19 C-21.95125002 16.37812506 -21.35068687 15.20628639 -18.875 13.75 C-18.25625 13.5025 -17.6375 13.255 -17 13 C-17 12.34 -17 11.68 -17 11 C-16.030625 10.195625 -15.06125 9.39125 -14.0625 8.5625 C-10.80624673 6.29315623 -10.80624673 6.29315623 -10 3 C-6.97719723 0.28990097 -3.92708405 -1.96354202 0 0 Z " fill="#E5A433" transform="translate(280,181)"/>
<path d="M0 0 C2.31 0 4.62 0 7 0 C8.60355101 3.50776784 9.22036864 6.14354879 9 10 C4.25 10.125 4.25 10.125 2 9 C-0.11473645 8.9469449 -0.11473645 8.9469449 -2.4375 9.1875 C-3.21996094 9.24292969 -4.00242188 9.29835937 -4.80859375 9.35546875 C-7.74772627 10.21991949 -8.48931957 11.37233161 -10 14 C-12.01190037 20.22935996 -12.20931152 26.51134283 -12 33 C-14.29910459 30.60509939 -14.97487378 29.20938515 -15.375 25.875 C-14.75695036 19.4884871 -13.74125586 13.52516645 -9 9 C-8.67 8.01 -8.34 7.02 -8 6 C-7.01 6 -6.02 6 -5 6 C-4.67 5.34 -4.34 4.68 -4 4 C-3.67 5.32 -3.34 6.64 -3 8 C-2.01 8 -1.02 8 0 8 C0 7.34 0 6.68 0 6 C1.65 6 3.3 6 5 6 C5.33 4.35 5.66 2.7 6 1 C4.02 1 2.04 1 0 1 C0 0.67 0 0.34 0 0 Z " fill="#F3AF37" transform="translate(259,202)"/>
<path d="M0 0 C2.86724686 0.57344937 3.8614515 0.8614515 6 3 C6.31404687 7.23963281 6.32617985 10.36534398 4 14 C4.99 15.485 4.99 15.485 6 17 C6 17.99 6 18.98 6 20 C3.1875 20.25 3.1875 20.25 0 20 C-1.875 18 -1.875 18 -3 16 C-2.67 15.34 -2.34 14.68 -2 14 C-1.01 14 -0.02 14 1 14 C0.67 12.68 0.34 11.36 0 10 C-1.4540625 10.0309375 -1.4540625 10.0309375 -2.9375 10.0625 C-6 10 -6 10 -7 9 C-7.04063832 7.33382885 -7.042721 5.66611905 -7 4 C-5.02 4 -3.04 4 -1 4 C0.1490712 2.0745356 0.1490712 2.0745356 0 0 Z M-6 5 C-6 6.32 -6 7.64 -6 9 C-4.35 9 -2.7 9 -1 9 C-0.67 7.68 -0.34 6.36 0 5 C-1.98 5 -3.96 5 -6 5 Z " fill="#BDBDBC" transform="translate(343,296)"/>
<path d="M0 0 C0.66 0 1.32 0 2 0 C2.33 0.99 2.66 1.98 3 3 C2.01 4.485 2.01 4.485 1 6 C1.33 6.33 1.66 6.66 2 7 C2.66 7.66 3.32 8.32 4 9 C1.525 10.485 1.525 10.485 -1 12 C-0.67 12.66 -0.34 13.32 0 14 C-1.32 13.67 -2.64 13.34 -4 13 C-4.33 14.32 -4.66 15.64 -5 17 C-5.99 17 -6.98 17 -8 17 C-8.10957031 16.43410156 -8.21914063 15.86820313 -8.33203125 15.28515625 C-8.49058594 14.55167969 -8.64914062 13.81820312 -8.8125 13.0625 C-8.96332031 12.33160156 -9.11414063 11.60070312 -9.26953125 10.84765625 C-9.63111328 9.93306641 -9.63111328 9.93306641 -10 9 C-10.99 8.67 -11.98 8.34 -13 8 C-13 7.34 -13 6.68 -13 6 C-11.96939453 5.85304687 -11.96939453 5.85304687 -10.91796875 5.703125 C-10.01691406 5.55359375 -9.11585938 5.4040625 -8.1875 5.25 C-7.29417969 5.11078125 -6.40085937 4.9715625 -5.48046875 4.828125 C-2.47551322 3.82489575 -1.73755208 2.56719406 0 0 Z " fill="#F7A623" transform="translate(276,194)"/>
<path d="M0 0 C4.95 0 9.9 0 15 0 C15 1.32 15 2.64 15 4 C9.32723489 4.29341888 6.00932754 4.00559652 1 1 C1.144375 1.58007812 1.28875 2.16015625 1.4375 2.7578125 C2.50889428 7.26659675 3.23945936 11.33054247 3 16 C6.63 16 10.26 16 14 16 C14 16.99 14 17.98 14 19 C9.38 19 4.76 19 0 19 C0 12.73 0 6.46 0 0 Z " fill="#EAA638" transform="translate(129,296)"/>
<path d="M0 0 C1.9375 0.5625 1.9375 0.5625 4 2 C4.36526253 4.32854865 4.69350684 6.66298962 5 9 C5.91684135 10.8950487 5.91684135 10.8950487 7.0625 12.6875 C9 16 9 16 9 20 C7.25 19.9375 7.25 19.9375 5 19 C3.40498463 16.75835678 2.25456982 14.46433357 1 12 C-1.64 13.65 -4.28 15.3 -7 17 C-7 16.01 -7 15.02 -7 14 C-6.34 13.67 -5.68 13.34 -5 13 C-4.67 12.34 -4.34 11.68 -4 11 C-3.67 11 -3.34 11 -3 11 C-1.41678933 5.52225234 -1.41678933 5.52225234 0 0 Z " fill="#D79F3C" transform="translate(310,166)"/>
<path d="M0 0 C0 0.33 0 0.66 0 1 C-1.98 1 -3.96 1 -6 1 C-6 1.99 -6 2.98 -6 4 C-4.35 4.33 -2.7 4.66 -1 5 C-1 5.33 -1 5.66 -1 6 C-1.969375 6.2475 -2.93875 6.495 -3.9375 6.75 C-7.10113981 7.63146087 -7.10113981 7.63146087 -7.875 9.9375 C-7.97711653 11.62242272 -8 13.31198568 -8 15 C-8.66 14.67 -9.32 14.34 -10 14 C-10 15.65 -10 17.3 -10 19 C-10.66 19 -11.32 19 -12 19 C-14.82368571 14.76447144 -14.66653757 10.97522686 -14 6 C-10.09084097 -0.38495976 -6.92328906 -0.11166595 0 0 Z " fill="#A8A8A8" transform="translate(278,295)"/>
<path d="M0 0 C0.99 0 1.98 0 3 0 C3.33 2.64 3.66 5.28 4 8 C3.67 8 3.34 8 3 8 C2.67 34.4 2.34 60.8 2 88 C1.67 88 1.34 88 1 88 C0.97686492 76.95192216 0.95907894 65.90385005 0.94818783 54.85575294 C0.94296156 49.72609224 0.93586854 44.59644806 0.92456055 39.46679688 C0.9137226 34.51960461 0.90772123 29.57242828 0.90512276 24.62522507 C0.90327015 22.73451868 0.89965267 20.84381319 0.89426994 18.95311356 C0.8870475 16.31198467 0.88600957 13.67092227 0.88647461 11.02978516 C0.88287933 10.24216293 0.87928406 9.45454071 0.87557983 8.64305115 C0.88594784 3.22810432 0.88594784 3.22810432 2 1 C1.34 0.67 0.68 0.34 0 0 Z " fill="#EFA935" transform="translate(366,199)"/>
<path d="M0 0 C2.4375 1 2.4375 1 4 2 C3.67 3.65 3.34 5.3 3 7 C0.69 7 -1.62 7 -4 7 C-3.01 7.66 -2.02 8.32 -1 9 C-5.875 8.125 -5.875 8.125 -7 7 C-7.33 8.32 -7.66 9.64 -8 11 C-8.66 11 -9.32 11 -10 11 C-11.44755245 4.72727273 -11.44755245 4.72727273 -9.5 1.5625 C-6.12402383 -0.54748511 -3.91813216 -0.41979987 0 0 Z " fill="#C4C3C2" transform="translate(364,295)"/>
<path d="M0 0 C1 3 1 3 0.22265625 5.04296875 C-0.16019531 5.75066406 -0.54304687 6.45835937 -0.9375 7.1875 C-1.31777344 7.90292969 -1.69804687 8.61835938 -2.08984375 9.35546875 C-2.39019531 9.89816406 -2.69054687 10.44085938 -3 11 C-3.66 11 -4.32 11 -5 11 C-5.33 12.32 -5.66 13.64 -6 15 C-6.66 15 -7.32 15 -8 15 C-9.65 11.7 -11.3 8.4 -13 5 C-8.71 3.35 -4.42 1.7 0 0 Z " fill="#BDBDBD" transform="translate(192,237)"/>
<path d="M0 0 C2.34914492 2.34914492 2.73140357 3.95679446 3.625 7.125 C4.01558594 8.49011719 4.01558594 8.49011719 4.4140625 9.8828125 C4.70410156 10.93082031 4.70410156 10.93082031 5 12 C1.86650268 13.04449911 1.01031744 12.93423645 -2 12 C-2 10.68 -2 9.36 -2 8 C-4.64 8 -7.28 8 -10 8 C-10.33 9.32 -10.66 10.64 -11 12 C-12.98 12 -14.96 12 -17 12 C-16.45276317 8.62537285 -15.9451 6.91765 -14 4 C-13.67 4.66 -13.34 5.32 -13 6 C-9.04 6 -5.08 6 -1 6 C-0.67 4.02 -0.34 2.04 0 0 Z " fill="#BE8830" transform="translate(164,304)"/>
<path d="M0 0 C0.66 0 1.32 0 2 0 C2.33 0.99 2.66 1.98 3 3 C3.66 3.33 4.32 3.66 5 4 C3.62712658 7.69876091 1.93644547 10.9514476 -0.125 14.3125 C-0.66382813 15.19550781 -1.20265625 16.07851563 -1.7578125 16.98828125 C-2.37269531 17.98408203 -2.37269531 17.98408203 -3 19 C-4.98 17.35 -6.96 15.7 -9 14 C-8.67 13.34 -8.34 12.68 -8 12 C-7.34 12 -6.68 12 -6 12 C-4.68 9.36 -3.36 6.72 -2 4 C-1.34 4 -0.68 4 0 4 C0 2.68 0 1.36 0 0 Z " fill="#C5C5C6" transform="translate(192,242)"/>
<path d="M0 0 C5.28 0 10.56 0 16 0 C16 1.32 16 2.64 16 4 C13.69 4 11.38 4 9 4 C9 8.62 9 13.24 9 18 C8.34 18 7.68 18 7 18 C6.67 13.71 6.34 9.42 6 5 C3.03 4.505 3.03 4.505 0 4 C0 2.68 0 1.36 0 0 Z " fill="#F1A835" transform="translate(194,296)"/>
<path d="M0 0 C1.32 0 2.64 0 4 0 C3.67 1.98 3.34 3.96 3 6 C4.32 5.67 5.64 5.34 7 5 C7.33 5.99 7.66 6.98 8 8 C7.67 8.66 7.34 9.32 7 10 C6.34 10 5.68 10 5 10 C5.020625 11.11375 5.04125 12.2275 5.0625 13.375 C5 17 5 17 4 19 C2.68 19 1.36 19 0 19 C0 12.73 0 6.46 0 0 Z " fill="#EBEBEA" transform="translate(239,296)"/>
<path d="M0 0 C3.05264456 -0.29352352 5.95435678 -0.4095865 9 0 C12.34820754 2.76227122 12.91240817 4.55474153 13.75 8.8125 C13.87375 10.3903125 13.87375 10.3903125 14 12 C12.02 12 10.04 12 8 12 C8 10.02 8 8.04 8 6 C5.03 5.01 2.06 4.02 -1 3 C-0.67 2.01 -0.34 1.02 0 0 Z " fill="#D1D2D1" transform="translate(272,296)"/>
<path d="M0 0 C1.32 0.66 2.64 1.32 4 2 C3.67 4.31 3.34 6.62 3 9 C2.01 9 1.02 9 0 9 C-0.66 10.65 -1.32 12.3 -2 14 C-2.33 13.34 -2.66 12.68 -3 12 C-3.99 12.33 -4.98 12.66 -6 13 C-7.01911045 9.10885099 -7.16782969 7.39403493 -5.5625 3.625 C-5.046875 2.75875 -4.53125 1.8925 -4 1 C-3.01 1 -2.02 1 -1 1 C-0.67 0.67 -0.34 0.34 0 0 Z " fill="#DADADA" transform="translate(207,221)"/>
<path d="M0 0 C0.66 0.33 1.32 0.66 2 1 C2 1.66 2 2.32 2 3 C5.96 3.33 9.92 3.66 14 4 C13.01 4.66 12.02 5.32 11 6 C11.33 6.66 11.66 7.32 12 8 C6.72 8 1.44 8 -4 8 C-4 7.01 -4 6.02 -4 5 C-5.32 4.67 -6.64 4.34 -8 4 C-8 3.01 -8 2.02 -8 1 C-5.36 1.33 -2.72 1.66 0 2 C0 1.34 0 0.68 0 0 Z " fill="#F4AA37" transform="translate(256,233)"/>
<path d="M0 0 C1.11375 0.639375 2.2275 1.27875 3.375 1.9375 C5.23497087 3.00526106 7.08142937 4.04071468 9 5 C8.67 5.33 8.34 5.66 8 6 C10.31 6.33 12.62 6.66 15 7 C13 9 13 9 9.51586914 9.16699219 C8.02203962 9.13817008 6.52841282 9.097295 5.03515625 9.046875 C4.24604355 9.02659241 3.45693085 9.00630981 2.64390564 8.9854126 C0.97347775 8.93980266 -0.6968157 8.88902258 -2.36694336 8.83349609 C-4.92348567 8.75045521 -7.47992571 8.68851885 -10.03710938 8.62890625 C-11.65889139 8.5819988 -13.28063841 8.53386242 -14.90234375 8.484375 C-15.66804184 8.46654968 -16.43373993 8.44872437 -17.22264099 8.43035889 C-20.97486268 8.29202765 -22.80503567 8.12997622 -26 6 C-16.76 6 -7.52 6 2 6 C1.34 5.01 0.68 4.02 0 3 C0 2.01 0 1.02 0 0 Z " fill="#AB833B" transform="translate(280,235)"/>
<path d="M0 0 C1.32 0.33 2.64 0.66 4 1 C4 2.32 4 3.64 4 5 C7.465 4.505 7.465 4.505 11 4 C11.144375 5.2375 11.28875 6.475 11.4375 7.75 C12.15558844 13.36682878 13.7114122 17.82580151 16 23 C15.01 23 14.02 23 13 23 C12.09507812 21.38931641 12.09507812 21.38931641 11.171875 19.74609375 C10.36459627 18.30988856 9.55730387 16.87369106 8.75 15.4375 C8.35425781 14.73302734 7.95851563 14.02855469 7.55078125 13.30273438 C5.05190021 8.85800334 2.53483282 4.42432976 0 0 Z " fill="#D89C31" transform="translate(298,190)"/>
<path d="M0 0 C2.5 0.25 2.5 0.25 4.5 2.25 C4.6875 5.3125 4.6875 5.3125 4.5 8.25 C4.17 8.58 3.84 8.91 3.5 9.25 C3.83 9.91 4.16 10.57 4.5 11.25 C0.76512223 10.7520163 -1.31237635 10.37508244 -4.5 8.25 C-4.8125 5.25 -4.8125 5.25 -4.5 2.25 C-2.5 0.25 -2.5 0.25 0 0 Z " fill="#A58147" transform="translate(223.5,206.75)"/>
<path d="M0 0 C1.32 0 2.64 0 4 0 C4.2954439 5.02254631 3.98514628 7.89542386 1 12 C1.66 12 2.32 12 3 12 C3.66 13.65 4.32 15.3 5 17 C2 18 2 18 -0.375 17.4375 C-3.89040122 15.51239933 -5.57957333 13.18113219 -8 10 C-3.25 10.875 -3.25 10.875 -1 12 C-1 11.01 -1 10.02 -1 9 C-0.34 9 0.32 9 1 9 C0.67 6.03 0.34 3.06 0 0 Z " fill="#C38C30" transform="translate(186,299)"/>
<path d="M0 0 C1.4540625 0.0309375 1.4540625 0.0309375 2.9375 0.0625 C1.34828475 5.42345277 -0.25222938 10.77093973 -2.0625 16.0625 C-2.330625 15.423125 -2.59875 14.78375 -2.875 14.125 C-3.94917752 11.73118314 -3.94917752 11.73118314 -7.0625 11.0625 C-6.5872412 9.41553396 -6.10718109 7.76995272 -5.625 6.125 C-5.35816406 5.20847656 -5.09132813 4.29195313 -4.81640625 3.34765625 C-3.69602076 -0.04833086 -3.73530459 0.07623071 0 0 Z " fill="#C3C2C1" transform="translate(305.0625,294.9375)"/>
<path d="M0 0 C0.8971875 0.309375 0.8971875 0.309375 1.8125 0.625 C2.1425 2.935 2.4725 5.245 2.8125 7.625 C-0.39086822 10.45874881 -2.96837253 11.1455537 -7.1875 11.625 C-7.5175 10.635 -7.8475 9.645 -8.1875 8.625 C-7.6925 8.2125 -7.1975 7.8 -6.6875 7.375 C-4.75363908 5.50297662 -4.75363908 5.50297662 -5.1875 1.625 C-2.1875 -0.375 -2.1875 -0.375 0 0 Z " fill="#F7A721" transform="translate(304.1875,243.375)"/>
<path d="M0 0 C0.99 0 1.98 0 3 0 C2.67 1.32 2.34 2.64 2 4 C3.98 4.66 5.96 5.32 8 6 C7.34 7.65 6.68 9.3 6 11 C0.39 11 -5.22 11 -11 11 C-11.33 10.34 -11.66 9.68 -12 9 C-7.71 9.33 -3.42 9.66 1 10 C1 9.34 1 8.68 1 8 C-0.65 8 -2.3 8 -4 8 C-4.33 7.34 -4.66 6.68 -5 6 C-4.34 5.34 -3.68 4.68 -3 4 C-1.68 4 -0.36 4 1 4 C0.67 2.68 0.34 1.36 0 0 Z M-1 5 C-0.67 5.66 -0.34 6.32 0 7 C0.66 6.34 1.32 5.68 2 5 C1.01 5 0.02 5 -1 5 Z " fill="#B6B6B6" transform="translate(188,272)"/>
<path d="M0 0 C0 0.33 0 0.66 0 1 C-2.31 1.33 -4.62 1.66 -7 2 C-4.69 2.33 -2.38 2.66 0 3 C0 3.33 0 3.66 0 4 C-4.29 4.66 -8.58 5.32 -13 6 C-13 6.66 -13 7.32 -13 8 C-13.66 8 -14.32 8 -15 8 C-15.66 9.32 -16.32 10.64 -17 12 C-17.66 12 -18.32 12 -19 12 C-19.3125 9.8125 -19.3125 9.8125 -19 7 C-13.44013645 0.1693105 -8.29175596 -0.3251669 0 0 Z " fill="#A9A9A9" transform="translate(183,203)"/>
<path d="M0 0 C0.33 0 0.66 0 1 0 C0.53411505 5.70709064 -0.93757784 9.15939723 -4 14 C-4.66 14 -5.32 14 -6 14 C-6.33 14.66 -6.66 15.32 -7 16 C-7.5534764 13.92446352 -8 12.15634036 -8 10 C-8.66 9.34 -9.32 8.68 -10 8 C-9.38125 7.71125 -8.7625 7.4225 -8.125 7.125 C-5.86674235 6.06279958 -5.86674235 6.06279958 -4 4 C-3.34 4.33 -2.68 4.66 -2 5 C-1.34 3.35 -0.68 1.7 0 0 Z M-10 3 C-9 6 -9 6 -9.8125 8.625 C-11 11 -11 11 -13 12 C-12.5020163 8.26512223 -12.12508244 6.18762365 -10 3 Z " fill="#C4C3C2" transform="translate(217,212)"/>
<path d="M0 0 C0.33 0.99 0.66 1.98 1 3 C0 5 0 5 -2.4375 5.875 C-5.13605515 6.77050152 -5.13605515 6.77050152 -6.3125 9.125 C-6.539375 9.74375 -6.76625 10.3625 -7 11 C-7.66 11 -8.32 11 -9 11 C-9 12.32 -9 13.64 -9 15 C-8.01 15 -7.02 15 -6 15 C-7.98 16.98 -9.96 18.96 -12 21 C-12.66 20.67 -13.32 20.34 -14 20 C-13.67 18.35 -13.34 16.7 -13 15 C-13.99 14.67 -14.98 14.34 -16 14 C-14.2725597 12.4147483 -12.54312043 10.83177374 -10.8125 9.25 C-9.36810547 7.92742187 -9.36810547 7.92742187 -7.89453125 6.578125 C-5.32582261 4.29020637 -2.70839628 2.11918393 0 0 Z " fill="#B57F29" transform="translate(292,166)"/>
<path d="M0 0 C0.66 0 1.32 0 2 0 C2 0.66 2 1.32 2 2 C2.66 2 3.32 2 4 2 C4.04254356 3.99954746 4.04080783 6.00041636 4 8 C3 9 3 9 0.05859375 9.09765625 C-1.73384766 9.08025391 -1.73384766 9.08025391 -3.5625 9.0625 C-5.35880859 9.04896484 -5.35880859 9.04896484 -7.19140625 9.03515625 C-8.11824219 9.02355469 -9.04507813 9.01195312 -10 9 C-9.62890625 7.078125 -9.62890625 7.078125 -9 5 C-6.9375 3.75 -6.9375 3.75 -5 3 C-5 3.99 -5 4.98 -5 6 C-3.35 6 -1.7 6 0 6 C0 4.02 0 2.04 0 0 Z " fill="#F2A426" transform="translate(160,302)"/>
<path d="M0 0 C0.33 0.66 0.66 1.32 1 2 C1.99 2.33 2.98 2.66 4 3 C-2.49919692 9.86026341 -2.49919692 9.86026341 -7.02734375 10.11328125 C-9.01855955 10.12377975 -11.00986185 10.06633794 -13 10 C-13.33 9.01 -13.66 8.02 -14 7 C-10.7 6.67 -7.4 6.34 -4 6 C-4 5.34 -4 4.68 -4 4 C-2.70766393 2.62689293 -1.37562854 1.28965176 0 0 Z " fill="#ADAEAE" transform="translate(190,229)"/>
<path d="M0 0 C2 3 2 3 1.75 5.625 C1.5025 6.40875 1.255 7.1925 1 8 C0.01 8.495 0.01 8.495 -1 9 C-1 8.34 -1 7.68 -1 7 C-1.66 7 -2.32 7 -3 7 C-3 6.34 -3 5.68 -3 5 C-4.65 5 -6.3 5 -8 5 C-8.33 3.68 -8.66 2.36 -9 1 C-3.375 -1.125 -3.375 -1.125 0 0 Z " fill="#C3C2C2" transform="translate(209,199)"/>
<path d="M0 0 C0.66 0.99 1.32 1.98 2 3 C0.625 6.6875 0.625 6.6875 -1 10 C-1.66 10 -2.32 10 -3 10 C-2.67 10.99 -2.34 11.98 -2 13 C-2.99 14.485 -2.99 14.485 -4 16 C-4.66 16 -5.32 16 -6 16 C-6.268125 16.78375 -6.53625 17.5675 -6.8125 18.375 C-8 21 -8 21 -11 23 C-9.44347945 17.6462535 -7.0182491 12.99849053 -4.375 8.125 C-3.95476562 7.34125 -3.53453125 6.5575 -3.1015625 5.75 C-2.0718978 3.83107943 -1.03652433 1.91522397 0 0 Z " fill="#CF933A" transform="translate(324,233)"/>
<path d="M0 0 C0.66 0.33 1.32 0.66 2 1 C2.43927311 6.35913191 2.43927311 6.35913191 2 9 C-0.4375 10.875 -0.4375 10.875 -3 12 C-3.33 12.66 -3.66 13.32 -4 14 C-4.99 14 -5.98 14 -7 14 C-10 9.77777778 -10 9.77777778 -10 7 C-9.01 7.33 -8.02 7.66 -7 8 C-7 8.66 -7 9.32 -7 10 C-5.68 9.67 -4.36 9.34 -3 9 C-2.67 6.69 -2.34 4.38 -2 2 C-1.34 2 -0.68 2 0 2 C0 1.34 0 0.68 0 0 Z M0 5 C0 8 0 8 0 8 Z " fill="#AB7D30" transform="translate(329,217)"/>
<path d="M0 0 C1 2 1 2 1 5 C2.57301041 6.8590123 3.81619917 7.90809958 6 9 C5.67 9.99 5.34 10.98 5 12 C1.9375 13.1875 1.9375 13.1875 -1 14 C-1 13.34 -1 12.68 -1 12 C-1.66 12 -2.32 12 -3 12 C-2.814375 11.2575 -2.62875 10.515 -2.4375 9.75 C-2.00796892 7.05009037 -2.14877026 5.55368923 -3 3 C-2.34 3 -1.68 3 -1 3 C-0.67 2.01 -0.34 1.02 0 0 Z " fill="#F7A71F" transform="translate(285,184)"/>
<path d="M0 0 C0 1.32 0 2.64 0 4 C-3.21428571 7 -3.21428571 7 -6 7 C-6 7.66 -6 8.32 -6 9 C-8.90548882 11.04169485 -10.40142046 12 -14 12 C-12.95125002 9.37812506 -12.35068687 8.20628639 -9.875 6.75 C-9.25625 6.5025 -8.6375 6.255 -8 6 C-8 5.34 -8 4.68 -8 4 C-3.64705882 0 -3.64705882 0 0 0 Z " fill="#BAB9B0" transform="translate(271,188)"/>
<path d="M0 0 C0 3 0 6 0 9 C0.66 9 1.32 9 2 9 C2.33 10.65 2.66 12.3 3 14 C2.34 14 1.68 14 1 14 C1 12.68 1 11.36 1 10 C-0.98 10 -2.96 10 -5 10 C-5.33 7.69 -5.66 5.38 -6 3 C-6.66 3 -7.32 3 -8 3 C-7.67 2.01 -7.34 1.02 -7 0 C-2.25 -1.125 -2.25 -1.125 0 0 Z " fill="#FAB134" transform="translate(301,181)"/>
<path d="M0 0 C0.33 0.99 0.66 1.98 1 3 C1.66 3 2.32 3 3 3 C3.41176754 6.60296594 3.1535853 7.78402067 1 10.8125 C0.34 11.534375 -0.32 12.25625 -1 13 C-1.66 12.34 -2.32 11.68 -3 11 C-3.99 11 -4.98 11 -6 11 C-4.54955729 6.89041233 -2.48889248 3.56741255 0 0 Z " fill="#AFAFAF" transform="translate(206,248)"/>
<path d="M0 0 C0.33 0.99 0.66 1.98 1 3 C1.99 2.67 2.98 2.34 4 2 C6.35188447 2.59793673 8.68925595 3.25881795 11 4 C11 4.99 11 5.98 11 7 C6.38 7 1.76 7 -3 7 C-3 5.35 -3 3.7 -3 2 C-2.34 2 -1.68 2 -1 2 C-0.67 1.34 -0.34 0.68 0 0 Z " fill="#EAE9E9" transform="translate(315,308)"/>
<path d="M0 0 C2.9375 0.375 2.9375 0.375 6 1 C6.33 1.66 6.66 2.32 7 3 C6.01 3.495 6.01 3.495 5 4 C5 6.31 5 8.62 5 11 C4.34 11 3.68 11 3 11 C3 11.99 3 12.98 3 14 C0.36 13.34 -2.28 12.68 -5 12 C-4.67 11.01 -4.34 10.02 -4 9 C-0.535 8.505 -0.535 8.505 3 8 C2.74438677 5.6568787 2.40729228 3.32156597 2 1 C1.34 0.67 0.68 0.34 0 0 Z " fill="#F4A425" transform="translate(182,297)"/>
<path d="M0 0 C0.99 0 1.98 0 3 0 C3 5.61 3 11.22 3 17 C1 15 1 15 0 12 C-2.64 11.67 -5.28 11.34 -8 11 C-8 10.67 -8 10.34 -8 10 C-6.02 10 -4.04 10 -2 10 C-2 9.34 -2 8.68 -2 8 C-1.34 8 -0.68 8 0 8 C0 5.36 0 2.72 0 0 Z " fill="#F2A322" transform="translate(228,297)"/>
<path d="M0 0 C2.80163026 4.2024454 2.14489712 7.00104935 2 12 C5.63 12 9.26 12 13 12 C13 12.99 13 13.98 13 15 C8.71 15 4.42 15 0 15 C0 10.05 0 5.1 0 0 Z " fill="#EBA230" transform="translate(130,300)"/>
<path d="M0 0 C0.99 0.33 1.98 0.66 3 1 C3.6875 3.0625 3.6875 3.0625 4 5 C4.66 5 5.32 5 6 5 C6.33 6.32 6.66 7.64 7 9 C13.93 9.495 13.93 9.495 21 10 C21.33 8.68 21.66 7.36 22 6 C22.33 5.34 22.66 4.68 23 4 C23.66 4 24.32 4 25 4 C23.125 9.875 23.125 9.875 22 11 C19.13732433 11.07325168 16.299281 11.09238205 13.4375 11.0625 C12.63119141 11.05798828 11.82488281 11.05347656 10.99414062 11.04882812 C8.99606244 11.03700518 6.99802217 11.01906914 5 11 C4.16151196 9.54462432 3.32936066 8.08559627 2.5 6.625 C1.80390625 5.40683594 1.80390625 5.40683594 1.09375 4.1640625 C0 2 0 2 0 0 Z " fill="#B88D3A" transform="translate(299,272)"/>
<path d="M0 0 C2.0625 0.4375 2.0625 0.4375 4 1 C3.01 1.33 2.02 1.66 1 2 C2.21044132 6.60742865 2.21044132 6.60742865 4 11 C4.33 11.66 4.66 12.32 5 13 C3.68 13.33 2.36 13.66 1 14 C0.67 13.01 0.34 12.02 0 11 C-0.99 11 -1.98 11 -3 11 C-3.33 11.99 -3.66 12.98 -4 14 C-2.28571429 2.28571429 -2.28571429 2.28571429 0 0 Z " fill="#B18129" transform="translate(254,197)"/>
<path d="M0 0 C4.47915328 -0.02886338 8.95828291 -0.04675187 13.4375 -0.0625 C14.71689453 -0.07087891 15.99628906 -0.07925781 17.31445312 -0.08789062 C19.13686523 -0.09272461 19.13686523 -0.09272461 20.99609375 -0.09765625 C22.12200928 -0.10289307 23.2479248 -0.10812988 24.40795898 -0.11352539 C27 0 27 0 28 1 C28.14115161 3.67058851 28.04247107 6.32432238 28 9 C27.01 9.495 27.01 9.495 26 10 C25.67 7.36 25.34 4.72 25 2 C18.07 1.67 11.14 1.34 4 1 C3.67 1.66 3.34 2.32 3 3 C0.9375 3.625 0.9375 3.625 -1 4 C-0.67 2.68 -0.34 1.36 0 0 Z " fill="#A8A9A8" transform="translate(215,199)"/>
<path d="M0 0 C1.32 0 2.64 0 4 0 C4.84384675 1.41042956 5.67469496 2.82864132 6.5 4.25 C7.19609375 5.43335938 7.19609375 5.43335938 7.90625 6.640625 C9 9 9 9 9 13 C7.171875 12.7734375 7.171875 12.7734375 5 12 C3.515625 10.0390625 3.515625 10.0390625 2.25 7.625 C1.82203125 6.83351562 1.3940625 6.04203125 0.953125 5.2265625 C0 3 0 3 0 0 Z " fill="#C5C1B0" transform="translate(310,173)"/>
<path d="M0 0 C0.66 0.99 1.32 1.98 2 3 C1.1875 4.9375 1.1875 4.9375 0 7 C-0.99 7.33 -1.98 7.66 -3 8 C-3.495 8.66 -3.99 9.32 -4.5 10 C-6 12 -6 12 -9 13 C-11.33299825 13.03954234 -13.66708189 13.04401732 -16 13 C-14 11 -14 11 -11.0625 10.125 C-7.70067054 8.89004224 -6.92738024 7.89107036 -5 5 C-4.34 5 -3.68 5 -3 5 C-2.690625 4.360625 -2.38125 3.72125 -2.0625 3.0625 C-1 1 -1 1 0 0 Z " fill="#DCA13F" transform="translate(279,187)"/>
<path d="M0 0 C1.32 0.99 2.64 1.98 4 3 C4 3.66 4 4.32 4 5 C4.66 5 5.32 5 6 5 C6 5.66 6 6.32 6 7 C6.66 7 7.32 7 8 7 C9.2890625 8.53125 9.2890625 8.53125 10.625 10.5 C11.07101562 11.1496875 11.51703125 11.799375 11.9765625 12.46875 C12.48316406 13.22671875 12.48316406 13.22671875 13 14 C10.03 13.505 10.03 13.505 7 13 C7 12.01 7 11.02 7 10 C5.35 10 3.7 10 2 10 C1.34 6.7 0.68 3.4 0 0 Z " fill="#CC9636" transform="translate(308,185)"/>
<path d="M0 0 C1.32 0.66 2.64 1.32 4 2 C4.1799928 7.21979128 3.97094808 11.07262981 2 16 C0.68 16 -0.64 16 -2 16 C-1.67 15.030625 -1.34 14.06125 -1 13.0625 C0.26873752 8.70233163 0.18385528 4.50445434 0 0 Z " fill="#CDCDCD" transform="translate(193,215)"/>
<path d="M0 0 C2.44457392 2.25044599 4.09902934 4.55801293 5.75 7.4375 C6.19859375 8.19933594 6.6471875 8.96117187 7.109375 9.74609375 C8.15455478 12.39113206 7.88819704 13.36248804 7 16 C7 16.99 7 17.98 7 19 C6.34 19 5.68 19 5 19 C4.34 19.66 3.68 20.32 3 21 C3 19.68 3 18.36 3 17 C3.66 17 4.32 17 5 17 C4.649375 16.236875 4.29875 15.47375 3.9375 14.6875 C3 12 3 12 4 9 C3.01 8.34 2.02 7.68 1 7 C0.3125 3.375 0.3125 3.375 0 0 Z " fill="#B08636" transform="translate(328,197)"/>
<path d="M0 0 C1.32 0 2.64 0 4 0 C5 3 5 3 4.00390625 5.48046875 C3.52824219 6.37378906 3.05257812 7.26710937 2.5625 8.1875 C2.08941406 9.08855469 1.61632812 9.98960937 1.12890625 10.91796875 C0.75636719 11.60503906 0.38382813 12.29210937 0 13 C-1.546875 11.19140625 -1.546875 11.19140625 -3 9 C-2.25 5.9375 -2.25 5.9375 -1 3 C-0.67 2.01 -0.34 1.02 0 0 Z " fill="#BFBDBE" transform="translate(215,231)"/>
<path d="M0 0 C0.66 0 1.32 0 2 0 C3.58538318 2.51796153 4.0373656 3.67865586 3.6875 6.6875 C3 9 3 9 2 10 C0.33382885 10.04063832 -1.33388095 10.042721 -3 10 C-2.25 2.25 -2.25 2.25 0 0 Z " fill="#DCDBDB" transform="translate(194,268)"/>
<path d="M0 0 C0.185625 0.639375 0.37125 1.27875 0.5625 1.9375 C1.036875 2.618125 1.51125 3.29875 2 4 C4.32156597 4.40729228 6.6568787 4.74438677 9 5 C9.33 5.66 9.66 6.32 10 7 C9.01 7 8.02 7 7 7 C7 8.65 7 10.3 7 12 C6.34 11.67 5.68 11.34 5 11 C5 10.34 5 9.68 5 9 C3.35 9 1.7 9 0 9 C-1.125 7.3125 -1.125 7.3125 -2 5 C-1.125 2.25 -1.125 2.25 0 0 Z " fill="#D4D5D5" transform="translate(357,299)"/>
<path d="M0 0 C0.556875 0.226875 1.11375 0.45375 1.6875 0.6875 C1.6875 1.3475 1.6875 2.0075 1.6875 2.6875 C-0.2925 3.6775 -0.2925 3.6775 -2.3125 4.6875 C-1.3225 4.6875 -0.3325 4.6875 0.6875 4.6875 C1.3475 5.0175 2.0075 5.3475 2.6875 5.6875 C2.6875 6.3475 2.6875 7.0075 2.6875 7.6875 C1.0375 7.6875 -0.6125 7.6875 -2.3125 7.6875 C-2.3125 8.3475 -2.3125 9.0075 -2.3125 9.6875 C-3.3025 9.3575 -4.2925 9.0275 -5.3125 8.6875 C-4.6525 8.6875 -3.9925 8.6875 -3.3125 8.6875 C-3.3125 8.0275 -3.3125 7.3675 -3.3125 6.6875 C-4.6325 6.0275 -5.9525 5.3675 -7.3125 4.6875 C-7.3125 4.0275 -7.3125 3.3675 -7.3125 2.6875 C-3.15982824 -0.42700382 -3.15982824 -0.42700382 0 0 Z " fill="#D9C990" transform="translate(186.3125,268.3125)"/>
<path d="M0 0 C0.66 0.66 1.32 1.32 2 2 C4.66242821 2.46290221 4.66242821 2.46290221 7.625 2.625 C9.12933594 2.73714844 9.12933594 2.73714844 10.6640625 2.8515625 C11.43492187 2.90054687 12.20578125 2.94953125 13 3 C13 3.33 13 3.66 13 4 C10.36 4 7.72 4 5 4 C4.67 5.32 4.34 6.64 4 8 C2.02 8 0.04 8 -2 8 C-1.47731534 5.23723823 -0.89130413 2.6739124 0 0 Z " fill="#C88F2E" transform="translate(149,308)"/>
<path d="M0 0 C1.12680817 3.38042451 0.58308444 4.67696128 -0.45703125 7.96484375 C-1.24262937 10.90942377 -1.49021391 13.85694757 -1.75390625 16.88671875 C-1.99924408 18.99350872 -2.44171405 20.95602748 -3 23 C-5.3673451 19.30102329 -5.3487836 16.3249166 -5 12 C-2.88085938 2.88085938 -2.88085938 2.88085938 0 0 Z " fill="#B4883A" transform="translate(249,212)"/>
<path d="M0 0 C1.32 0.66 2.64 1.32 4 2 C1.36 3.98 -1.28 5.96 -4 8 C-3.67 10.64 -3.34 13.28 -3 16 C-3.33 15.01 -3.66 14.02 -4 13 C-4.66 13 -5.32 13 -6 13 C-7.76462683 9.91190305 -8 8.76687864 -8 5 C-4.535 4.505 -4.535 4.505 -1 4 C-0.67 2.68 -0.34 1.36 0 0 Z " fill="#BC9035" transform="translate(272,207)"/>
<path d="M0 0 C0.99 0.33 1.98 0.66 3 1 C0.69 5.62 -1.62 10.24 -4 15 C-4.33 15 -4.66 15 -5 15 C-5.76681614 6.22421525 -5.76681614 6.22421525 -3.88671875 3.22265625 C-2.5 1.875 -2.5 1.875 0 0 Z " fill="#C78E30" transform="translate(334,252)"/>
<path d="M0 0 C1 3 1 3 1 5 C1.31802943 6.66965451 1.64984951 8.33678518 2 10 C-0.475 11.485 -0.475 11.485 -3 13 C-3.66 11.35 -4.32 9.7 -5 8 C-4.34 8 -3.68 8 -3 8 C-2.87625 7.236875 -2.7525 6.47375 -2.625 5.6875 C-2 3 -2 3 0 0 Z " fill="#CACAC9" transform="translate(253,296)"/>
<path d="M0 0 C1.875 0.3125 1.875 0.3125 4 1 C6 4 6 4 6 7 C6.66 7.66 7.32 8.32 8 9 C6.625 11 6.625 11 5 13 C4.34 13 3.68 13 3 13 C2.86722656 12.39671875 2.73445312 11.7934375 2.59765625 11.171875 C2.42105469 10.37265625 2.24445313 9.5734375 2.0625 8.75 C1.88847656 7.96109375 1.71445313 7.1721875 1.53515625 6.359375 C1.052444 4.23121297 0.53836822 2.11467158 0 0 Z " fill="#C8C8C8" transform="translate(196,210)"/>
<path d="M0 0 C1.37494222 2.26461071 2.07991957 3.45654694 1.6875 6.125 C1 8 1 8 0 10 C-3.0625 10.625 -3.0625 10.625 -6 11 C-5.67 9.35 -5.34 7.7 -5 6 C-4.34 6 -3.68 6 -3 6 C-2.87625 5.38125 -2.7525 4.7625 -2.625 4.125 C-2 2 -2 2 0 0 Z " fill="#F3AB32" transform="translate(288,171)"/>
<path d="M0 0 C4.95 0 9.9 0 15 0 C15 1.32 15 2.64 15 4 C11.7 4 8.4 4 5 4 C5.33 3.34 5.66 2.68 6 2 C3.03 1.505 3.03 1.505 0 1 C0 0.67 0 0.34 0 0 Z " fill="#F0F0F0" transform="translate(312,296)"/>
<path d="M0 0 C0 2.31 0 4.62 0 7 C-2.97 7 -5.94 7 -9 7 C-9.33 7.66 -9.66 8.32 -10 9 C-10.33 7.35 -10.66 5.7 -11 4 C-9.02 4 -7.04 4 -5 4 C-5 3.01 -5 2.02 -5 1 C-3 0 -3 0 0 0 Z " fill="#DDDBD7" transform="translate(228,200)"/>
<path d="M0 0 C0.99 0 1.98 0 3 0 C3.33 1.32 3.66 2.64 4 4 C6.64 4.66 9.28 5.32 12 6 C12 6.33 12 6.66 12 7 C10.22950311 7.05410687 8.45853151 7.09284119 6.6875 7.125 C5.20830078 7.15980469 5.20830078 7.15980469 3.69921875 7.1953125 C1 7 1 7 -2 5 C-2 4.01 -2 3.02 -2 2 C-1.34 2 -0.68 2 0 2 C0 1.34 0 0.68 0 0 Z " fill="#ADADAD" transform="translate(354,309)"/>
<path d="M0 0 C0.89267578 0.0515625 1.78535156 0.103125 2.70507812 0.15625 C3.63384766 0.22070312 4.56261719 0.28515625 5.51953125 0.3515625 C6.93008789 0.43664062 6.93008789 0.43664062 8.36914062 0.5234375 C10.69088034 0.66486327 13.01153055 0.8162658 15.33203125 0.9765625 C15.33203125 1.3065625 15.33203125 1.6365625 15.33203125 1.9765625 C4.44203125 2.4715625 4.44203125 2.4715625 -6.66796875 2.9765625 C-6.66796875 4.6265625 -6.66796875 6.2765625 -6.66796875 7.9765625 C-7.65796875 8.3065625 -8.64796875 8.6365625 -9.66796875 8.9765625 C-8.12963929 2.58657861 -6.96833636 -0.44384308 0 0 Z " fill="#B68833" transform="translate(348.66796875,198.0234375)"/>
<path d="M0 0 C1.98 0 3.96 0 6 0 C6 0.66 6 1.32 6 2 C8.64 2.33 11.28 2.66 14 3 C14 3.33 14 3.66 14 4 C10.7 4 7.4 4 4 4 C5.98 4.66 7.96 5.32 10 6 C10 6.33 10 6.66 10 7 C3.25 7.125 3.25 7.125 1 6 C0.375 2.9375 0.375 2.9375 0 0 Z " fill="#BF8326" transform="translate(130,297)"/>
<path d="M0 0 C1.66666667 1.66666667 3.33333333 3.33333333 5 5 C5.928125 5.886875 6.85625 6.77375 7.8125 7.6875 C10 10 10 10 10 12 C8.02 12.33 6.04 12.66 4 13 C4.0825 12.2575 4.165 11.515 4.25 10.75 C3.92614302 7.18757321 2.50327173 6.42504449 0 4 C0 2.68 0 1.36 0 0 Z " fill="#D49D38" transform="translate(270,225)"/>
<path d="M0 0 C1.98 0 3.96 0 6 0 C6.33 1.65 6.66 3.3 7 5 C6.01 5 5.02 5 4 5 C4 6.65 4 8.3 4 10 C2 9 2 9 0.875 6.6875 C0 4 0 4 0 0 Z " fill="#AFB0B0" transform="translate(287,295)"/>
<path d="M0 0 C1.32 0.33 2.64 0.66 4 1 C4.20086443 4.71599191 4.1519437 5.77208445 2 9 C-0.625 9.1875 -0.625 9.1875 -3 9 C-2.67 8.34 -2.34 7.68 -2 7 C-1.34 7 -0.68 7 0 7 C-0.185625 6.401875 -0.37125 5.80375 -0.5625 5.1875 C-1 3 -1 3 0 0 Z " fill="#EBEBEB" transform="translate(298,306)"/>
<path d="M0 0 C3.63 0 7.26 0 11 0 C11 0.66 11 1.32 11 2 C11.66 2.33 12.32 2.66 13 3 C9.5647952 5.29013653 8.014669 5.17842973 4 5 C4.33 3.68 4.66 2.36 5 1 C3.35 1 1.7 1 0 1 C0 0.67 0 0.34 0 0 Z " fill="#CECFCE" transform="translate(332,295)"/>
<path d="M0 0 C1.65 0 3.3 0 5 0 C4.609375 6.0546875 4.609375 6.0546875 4 8 C2.02 8.99 2.02 8.99 0 10 C0 6.7 0 3.4 0 0 Z " fill="#F3F3F3" transform="translate(332,296)"/>
<path d="M0 0 C0.33 0.66 0.66 1.32 1 2 C0.00390625 4.1640625 0.00390625 4.1640625 -1.4375 6.625 C-1.91058594 7.44226563 -2.38367188 8.25953125 -2.87109375 9.1015625 C-3.24363281 9.72804688 -3.61617187 10.35453125 -4 11 C-7 7.25 -7 7.25 -7 5 C-7.66 4.67 -8.32 4.34 -9 4 C-8.34 3.34 -7.68 2.68 -7 2 C-7 2.66 -7 3.32 -7 4 C-5.02 3.67 -3.04 3.34 -1 3 C-0.67 2.01 -0.34 1.02 0 0 Z " fill="#A8A9A8" transform="translate(203,263)"/>
<path d="M0 0 C2.32472205 2.85306797 3.7508258 5.54074837 5 9 C3.576875 8.9690625 3.576875 8.9690625 2.125 8.9375 C-0.90666283 8.77448174 -0.90666283 8.77448174 -3 10 C-3.33 8.68 -3.66 7.36 -4 6 C-3.01 6 -2.02 6 -1 6 C-0.67 4.02 -0.34 2.04 0 0 Z " fill="#B7872B" transform="translate(323,187)"/>
<path d="M0 0 C0.66 1.32 1.32 2.64 2 4 C1.01 4.495 1.01 4.495 0 5 C0 6.98 0 8.96 0 11 C-0.66 11 -1.32 11 -2 11 C-2.33 11.66 -2.66 12.32 -3 13 C-3.99 11.02 -4.98 9.04 -6 7 C-4.68 6.67 -3.36 6.34 -2 6 C-1.855625 5.195625 -1.71125 4.39125 -1.5625 3.5625 C-1 1 -1 1 0 0 Z " fill="#CFCECF" transform="translate(177,265)"/>
<path d="M0 0 C1.32 0.66 2.64 1.32 4 2 C4 3.98 4 5.96 4 8 C2.0625 8.5625 2.0625 8.5625 0 9 C-1 8 -1 8 -1.125 5.0625 C-1 2 -1 2 0 0 Z " fill="#CDCECE" transform="translate(195,237)"/>
<path d="M0 0 C0 0.33 0 0.66 0 1 C-1.98 1 -3.96 1 -6 1 C-6 1.99 -6 2.98 -6 4 C-4.35 4.33 -2.7 4.66 -1 5 C-1 5.33 -1 5.66 -1 6 C-2.98 6.33 -4.96 6.66 -7 7 C-7.33 6.34 -7.66 5.68 -8 5 C-9.65 5.33 -11.3 5.66 -13 6 C-9.32275786 -0.51874744 -7.1066834 -0.11462393 0 0 Z " fill="#969595" transform="translate(278,295)"/>
<path d="M0 0 C1.65 0 3.3 0 5 0 C6 1 6 1 6.0625 4.5625 C6.041875 5.696875 6.02125 6.83125 6 8 C5.67 8 5.34 8 5 8 C4.67 6.35 4.34 4.7 4 3 C3.01 2.67 2.02 2.34 1 2 C1 7.61 1 13.22 1 19 C0.67 19 0.34 19 0 19 C0 12.73 0 6.46 0 0 Z " fill="#856228" transform="translate(215,295)"/>
<path d="M0 0 C2 2 2 2 3 4 C1.35 3.67 -0.3 3.34 -2 3 C-2 2.34 -2 1.68 -2 1 C-3.32 1.33 -4.64 1.66 -6 2 C-5.34 3.32 -4.68 4.64 -4 6 C-5.98 5.34 -7.96 4.68 -10 4 C-10 3.01 -10 2.02 -10 1 C-6.82227126 -0.58886437 -3.45134689 -0.54346362 0 0 Z " fill="#AA7E38" transform="translate(299,231)"/>
<path d="M0 0 C0.99 0 1.98 0 3 0 C3.33 2.64 3.66 5.28 4 8 C3.67 8 3.34 8 3 8 C2.67 13.94 2.34 19.88 2 26 C1.67 26 1.34 26 1 26 C0.9710663 22.20834926 0.95322399 18.41672673 0.9375 14.625 C0.92912109 13.54476562 0.92074219 12.46453125 0.91210938 11.3515625 C0.90888672 10.3203125 0.90566406 9.2890625 0.90234375 8.2265625 C0.89710693 7.27346191 0.89187012 6.32036133 0.88647461 5.33837891 C1 3 1 3 2 1 C1.34 0.67 0.68 0.34 0 0 Z " fill="#C38D33" transform="translate(366,199)"/>
<path d="M0 0 C-0.99 0.495 -0.99 0.495 -2 1 C-1.67 2.32 -1.34 3.64 -1 5 C-2.093125 4.979375 -3.18625 4.95875 -4.3125 4.9375 C-7.94384191 4.81455548 -7.94384191 4.81455548 -11 6 C-10.75 4.125 -10.75 4.125 -10 2 C-6.82026536 -0.35535899 -3.84875379 -0.17494335 0 0 Z " fill="#EBEAE8" transform="translate(225,200)"/>
<path d="M0 0 C0.99 0.33 1.98 0.66 3 1 C2.67 2.32 2.34 3.64 2 5 C1.34 5 0.68 5 0 5 C0 5.99 0 6.98 0 8 C-0.99 8.33 -1.98 8.66 -3 9 C-3.1875 5.625 -3.1875 5.625 -3 2 C-2.01 1.34 -1.02 0.68 0 0 Z " fill="#E6E5E5" transform="translate(268,299)"/>
<path d="M0 0 C0.33 0.99 0.66 1.98 1 3 C1.66 3 2.32 3 3 3 C3 3.99 3 4.98 3 6 C3.66 6 4.32 6 5 6 C5 7.32 5 8.64 5 10 C3.02 10.99 3.02 10.99 1 12 C0.855625 11.401875 0.71125 10.80375 0.5625 10.1875 C0.1127561 8.43849596 -0.42892341 6.71322977 -1 5 C-0.5625 2.3125 -0.5625 2.3125 0 0 Z " fill="#EEAD30" transform="translate(265,217)"/>
<path d="M0 0 C0.66 0.66 1.32 1.32 2 2 C1.67 2.66 1.34 3.32 1 4 C1.66 4 2.32 4 3 4 C2.67 4.66 2.34 5.32 2 6 C1.01 6 0.02 6 -1 6 C-3.02323613 6.95211112 -5.02699884 7.94773272 -7 9 C-6.07506212 5.21616321 -5.60628829 3.43306306 -2.375 1.125 C-1.199375 0.568125 -1.199375 0.568125 0 0 Z " fill="#EEEEEE" transform="translate(213,212)"/>
<path d="M0 0 C0.66 0.99 1.32 1.98 2 3 C1.67 3.99 1.34 4.98 1 6 C-1.31 5.67 -3.62 5.34 -6 5 C-5.67 3.68 -5.34 2.36 -5 1 C-3.35 0.67 -1.7 0.34 0 0 Z " fill="#EBEDEC" transform="translate(343,305)"/>
<path d="M0 0 C0.66 0 1.32 0 2 0 C2 1.32 2 2.64 2 4 C2.66 4.66 3.32 5.32 4 6 C3.67 6.66 3.34 7.32 3 8 C1.68 8 0.36 8 -1 8 C-1 8.66 -1 9.32 -1 10 C-1.66 10 -2.32 10 -3 10 C-3 8.35 -3 6.7 -3 5 C-2.01 4.67 -1.02 4.34 0 4 C0 2.68 0 1.36 0 0 Z " fill="#F3A932" transform="translate(331,222)"/>
<path d="M0 0 C2 2 2 2 2 4.4375 C1 7 1 7 -2.0625 8.8125 C-3.031875 9.204375 -4.00125 9.59625 -5 10 C-3.84414715 6.08788267 -2.64465038 3.1254959 0 0 Z " fill="#C2C2C2" transform="translate(221,221)"/>
<path d="M0 0 C0.66 0.33 1.32 0.66 2 1 C1.67 2.98 1.34 4.96 1 7 C-0.65 7 -2.3 7 -4 7 C-3.67 5.02 -3.34 3.04 -3 1 C-2.01 0.67 -1.02 0.34 0 0 Z " fill="#ECA732" transform="translate(225,207)"/>
<path d="M0 0 C0.99 0.33 1.98 0.66 3 1 C3.04254356 2.99954746 3.04080783 5.00041636 3 7 C2 8 2 8 -0.5625 8.0625 C-1.366875 8.041875 -2.17125 8.02125 -3 8 C-3 6.68 -3 5.36 -3 4 C-2.01 3.67 -1.02 3.34 0 3 C0 2.01 0 1.02 0 0 Z " fill="#EBA735" transform="translate(321,195)"/>
<path d="M0 0 C1.45792884 -0.05399736 2.91642712 -0.09279177 4.375 -0.125 C5.18710937 -0.14820313 5.99921875 -0.17140625 6.8359375 -0.1953125 C9 0 9 0 11 2 C10 3 10 3 7.49609375 3.09765625 C5.98208984 3.08025391 5.98208984 3.08025391 4.4375 3.0625 C3.42558594 3.05347656 2.41367187 3.04445312 1.37109375 3.03515625 C0.58863281 3.02355469 -0.19382812 3.01195312 -1 3 C-0.67 2.01 -0.34 1.02 0 0 Z " fill="#BA9335" transform="translate(298,164)"/>
<path d="M0 0 C4.62 0 9.24 0 14 0 C14 0.66 14 1.32 14 2 C8.97874074 2.77916092 5.02296004 3.13016601 0 2 C0 1.34 0 0.68 0 0 Z " fill="#F1A11D" transform="translate(195,297)"/>
<path d="M0 0 C1.32 0.33 2.64 0.66 4 1 C3.67 2.65 3.34 4.3 3 6 C0.36 5.67 -2.28 5.34 -5 5 C-4.360625 4.731875 -3.72125 4.46375 -3.0625 4.1875 C-0.66868314 3.11332248 -0.66868314 3.11332248 0 0 Z " fill="#A7A6A5" transform="translate(364,296)"/>
<path d="M0 0 C1.175625 0.5259375 1.175625 0.5259375 2.375 1.0625 C3.674375 1.5265625 3.674375 1.5265625 5 2 C5.66 1.67 6.32 1.34 7 1 C9 3 9 3 9 6 C7.68 6.33 6.36 6.66 5 7 C4.67 6.34 4.34 5.68 4 5 C3.01 4.67 2.02 4.34 1 4 C0.3125 1.9375 0.3125 1.9375 0 0 Z " fill="#F1A834" transform="translate(317,220)"/>
<path d="M0 0 C0.33 1.32 0.66 2.64 1 4 C1.99 4 2.98 4 4 4 C3.34 5.32 2.68 6.64 2 8 C1.01 8 0.02 8 -1 8 C-1.66 6.02 -2.32 4.04 -3 2 C-2.01 1.34 -1.02 0.68 0 0 Z " fill="#B48C43" transform="translate(272,183)"/>
<path d="M0 0 C1.65 0 3.3 0 5 0 C6.25541557 3.76624671 5.37061958 5.37188934 4 9 C3.731875 8.360625 3.46375 7.72125 3.1875 7.0625 C2.11332248 4.66868314 2.11332248 4.66868314 -1 4 C-0.67 2.68 -0.34 1.36 0 0 Z " fill="#AFAFAF" transform="translate(299,302)"/>
<path d="M0 0 C0.66 0.33 1.32 0.66 2 1 C2 1.66 2 2.32 2 3 C2.66 3.33 3.32 3.66 4 4 C3.01 4.33 2.02 4.66 1 5 C1.33 6.65 1.66 8.3 2 10 C0.68 9.67 -0.64 9.34 -2 9 C-2.20140476 5.37471432 -1.85776765 3.13498292 0 0 Z " fill="#EDECEA" transform="translate(178,266)"/>
<path d="M0 0 C1.22419163 3.93795909 0.48320272 6.16112237 -1 10 C-1.66 10 -2.32 10 -3 10 C-3 11.32 -3 12.64 -3 14 C-3.66 14 -4.32 14 -5 14 C-4.34580901 8.93001981 -2.1453591 4.58009223 0 0 Z " fill="#DA9F3C" transform="translate(338,207)"/>
<path d="M0 0 C0 0.99 0 1.98 0 3 C-2.97 3 -5.94 3 -9 3 C-9 2.01 -9 1.02 -9 0 C-5.93109813 -1.53445094 -3.29905734 -0.54984289 0 0 Z " fill="#F0F1F0" transform="translate(325,304)"/>
<path d="M0 0 C2.875 0.1875 2.875 0.1875 6 1 C7.375 3.5625 7.375 3.5625 8 6 C6.68 6.33 5.36 6.66 4 7 C4 6.01 4 5.02 4 4 C2.68 3.67 1.36 3.34 0 3 C0 2.01 0 1.02 0 0 Z " fill="#CA9A3A" transform="translate(248,234)"/>
<path d="M0 0 C0.33 0.66 0.66 1.32 1 2 C1.99 2.33 2.98 2.66 4 3 C1.36 4.65 -1.28 6.3 -4 8 C-4.66 7.01 -5.32 6.02 -6 5 C-5.195625 4.360625 -4.39125 3.72125 -3.5625 3.0625 C-1.7249496 1.59396498 -1.7249496 1.59396498 0 0 Z " fill="#CF902A" transform="translate(280,200)"/>
<path d="M0 0 C1.32 0 2.64 0 4 0 C4 0.99 4 1.98 4 3 C1.11165997 5.10770759 -0.38462395 6 -4 6 C-2.84826645 3.53199953 -1.95216435 1.95216435 0 0 Z " fill="#E4DEC9" transform="translate(261,194)"/>
<path d="M0 0 C0 0.99 0 1.98 0 3 C-2.64 3 -5.28 3 -8 3 C-7.67 1.68 -7.34 0.36 -7 -1 C-3.51418144 -2.2020064 -3.32007656 -2.21338437 0 0 Z " fill="#E7E8E7" transform="translate(365,312)"/>
<path d="M0 0 C1.98 0.495 1.98 0.495 4 1 C4 1.66 4 2.32 4 3 C4.99 3.33 5.98 3.66 7 4 C6.34 4.66 5.68 5.32 5 6 C2.375 5.625 2.375 5.625 0 5 C-0.33 4.01 -0.66 3.02 -1 2 C-0.67 1.34 -0.34 0.68 0 0 Z " fill="#EAEBEA" transform="translate(268,309)"/>
<path d="M0 0 C0.99 0.33 1.98 0.66 3 1 C2.34 1 1.68 1 1 1 C1 4.63 1 8.26 1 12 C-1.97 11.67 -4.94 11.34 -8 11 C-8 10.67 -8 10.34 -8 10 C-6.02 10 -4.04 10 -2 10 C-2 9.34 -2 8.68 -2 8 C-1.34 8 -0.68 8 0 8 C0 5.36 0 2.72 0 0 Z " fill="#ECA332" transform="translate(228,297)"/>
<path d="M0 0 C0 3.69418201 -1.28179295 5.77836178 -3 9 C-3.33 8.34 -3.66 7.68 -4 7 C-4.66 7 -5.32 7 -6 7 C-3 1 -3 1 0 0 Z " fill="#C6872E" transform="translate(328,267)"/>
<path d="M0 0 C0 3.48961209 -0.90379374 5.11480295 -2.5 8.1875 C-2.9640625 9.08855469 -3.428125 9.98960937 -3.90625 10.91796875 C-4.2671875 11.60503906 -4.628125 12.29210937 -5 13 C-5.33 13 -5.66 13 -6 13 C-6.20140476 9.37471432 -5.85776765 7.13498292 -4 4 C-3.34 4 -2.68 4 -2 4 C-2 3.01 -2 2.02 -2 1 C-1.34 0.67 -0.68 0.34 0 0 Z " fill="#B68132" transform="translate(343,239)"/>
<path d="M0 0 C0.66 0.99 1.32 1.98 2 3 C0.625 6.6875 0.625 6.6875 -1 10 C-1.99 10 -2.98 10 -4 10 C-2.8905928 6.51329166 -1.73662334 3.22515763 0 0 Z " fill="#BE8B2E" transform="translate(324,233)"/>
<path d="M0 0 C1.32 0.33 2.64 0.66 4 1 C1.03 3.64 -1.94 6.28 -5 9 C-5.33 8.01 -5.66 7.02 -6 6 C-2.25 3 -2.25 3 0 3 C0 2.01 0 1.02 0 0 Z " fill="#C29137" transform="translate(290,193)"/>
<path d="M0 0 C2.13586678 3.20380017 2.23132175 4.01939967 2.125 7.6875 C2.10695312 8.49574219 2.08890625 9.30398438 2.0703125 10.13671875 C2.04710937 10.75160156 2.02390625 11.36648438 2 12 C2.66 12 3.32 12 4 12 C4 12.66 4 13.32 4 14 C2.68 14 1.36 14 0 14 C0 9.38 0 4.76 0 0 Z " fill="#F2A21B" transform="translate(130,300)"/>
<path d="M0 0 C1.32 0 2.64 0 4 0 C4.125 6.75 4.125 6.75 3 9 C2.34 9 1.68 9 1 9 C0.67 6.03 0.34 3.06 0 0 Z " fill="#D0962E" transform="translate(186,299)"/>
<path d="M0 0 C2 2 2 2 2 6 C1.34 6 0.68 6 0 6 C-0.28875 6.804375 -0.5775 7.60875 -0.875 8.4375 C-2 11 -2 11 -4 12 C-2.66666667 8 -1.33333333 4 0 0 Z " fill="#B88334" transform="translate(154,296)"/>
<path d="M0 0 C1.32 0.33 2.64 0.66 4 1 C4.33 3.31 4.66 5.62 5 8 C4.34 7.67 3.68 7.34 3 7 C3 6.34 3 5.68 3 5 C1.35 4.67 -0.3 4.34 -2 4 C-1.34 2.68 -0.68 1.36 0 0 Z " fill="#D5922F" transform="translate(180,297)"/>
<path d="M0 0 C-0.33 0.99 -0.66 1.98 -1 3 C-1.9590625 2.7834375 -1.9590625 2.7834375 -2.9375 2.5625 C-6.93844788 1.82763202 -10.95504896 1.41418889 -15 1 C-15 0.67 -15 0.34 -15 0 C-12.87562788 -0.19448477 -10.75046809 -0.38038289 -8.625 -0.5625 C-7.44164062 -0.66691406 -6.25828125 -0.77132812 -5.0390625 -0.87890625 C-2 -1 -2 -1 0 0 Z " fill="#E79824" transform="translate(273,238)"/>
<path d="M0 0 C2.76223278 2.76223278 2.57856291 5.20706617 3 9 C-0.51716303 9 -1.37121748 8.17554415 -4 6 C-3.34 5.67 -2.68 5.34 -2 5 C-1.27840576 3.35636866 -0.60648579 1.68949614 0 0 Z " fill="#EEEEEE" transform="translate(200,203)"/>
<path d="M0 0 C1.22589844 0.01353516 1.22589844 0.01353516 2.4765625 0.02734375 C3.41628906 0.04474609 3.41628906 0.04474609 4.375 0.0625 C4.375 0.3925 4.375 0.7225 4.375 1.0625 C2.065 1.3925 -0.245 1.7225 -2.625 2.0625 C-0.315 2.3925 1.995 2.7225 4.375 3.0625 C4.375 3.3925 4.375 3.7225 4.375 4.0625 C1.075 4.3925 -2.225 4.7225 -5.625 5.0625 C-5.295 4.0725 -4.965 3.0825 -4.625 2.0625 C-5.285 1.7325 -5.945 1.4025 -6.625 1.0625 C-4.21954362 -0.14022819 -2.67503047 -0.03821472 0 0 Z " fill="#686868" transform="translate(178.625,202.9375)"/>
<path d="M0 0 C0.66 0 1.32 0 2 0 C2 1.98 2 3.96 2 6 C3.65 6 5.3 6 7 6 C6.42655063 8.86724686 6.1385485 9.8614515 4 12 C3.87625 11.360625 3.7525 10.72125 3.625 10.0625 C3.41875 9.381875 3.2125 8.70125 3 8 C2.34 7.67 1.68 7.34 1 7 C0.59270772 4.67843403 0.25561323 2.3431213 0 0 Z " fill="#868686" transform="translate(278,302)"/>
<path d="M0 0 C0.33 0 0.66 0 1 0 C1.06058594 1.04800781 1.12117187 2.09601563 1.18359375 3.17578125 C1.26801738 4.55470048 1.35266447 5.93360605 1.4375 7.3125 C1.47681641 8.00279297 1.51613281 8.69308594 1.55664062 9.40429688 C1.74927415 12.47161535 2.02322717 15.06968152 3 18 C1.68 17.67 0.36 17.34 -1 17 C-0.67 11.39 -0.34 5.78 0 0 Z " fill="#ECA63B" transform="translate(216,297)"/>
<path d="M0 0 C0.99 0.33 1.98 0.66 3 1 C3.70211894 2.65204456 4.36971413 4.31923769 5 6 C5.66 6.33 6.32 6.66 7 7 C6.67 7.66 6.34 8.32 6 9 C5.34 9 4.68 9 4 9 C3.67 7.68 3.34 6.36 3 5 C1.35 5.33 -0.3 5.66 -2 6 C-1.34 4.02 -0.68 2.04 0 0 Z " fill="#B5B5B4" transform="translate(243,297)"/>
<path d="M0 0 C0.66 0 1.32 0 2 0 C0.125 5.875 0.125 5.875 -1 7 C-2.85287502 7.07226502 -4.70833878 7.0838122 -6.5625 7.0625 C-7.57441406 7.05347656 -8.58632813 7.04445313 -9.62890625 7.03515625 C-10.41136719 7.02355469 -11.19382812 7.01195312 -12 7 C-12 6.67 -12 6.34 -12 6 C-8.7 6 -5.4 6 -2 6 C-1.67 4.68 -1.34 3.36 -1 2 C-0.67 1.34 -0.34 0.68 0 0 Z " fill="#AC8034" transform="translate(322,276)"/>
<path d="M0 0 C0.99 0 1.98 0 3 0 C3.33 2.31 3.66 4.62 4 7 C3.01 7 2.02 7 1 7 C0.67 6.01 0.34 5.02 0 4 C0.33 3.34 0.66 2.68 1 2 C0.34 1.67 -0.32 1.34 -1 1 C-0.67 0.67 -0.34 0.34 0 0 Z " fill="#F8AB2F" transform="translate(303,244)"/>
<path d="M0 0 C0.66 0.33 1.32 0.66 2 1 C1.814375 1.5775 1.62875 2.155 1.4375 2.75 C0.95976454 5.20692525 1.24270636 6.64397534 2 9 C1.34 9 0.68 9 0 9 C-0.33 10.32 -0.66 11.64 -1 13 C-0.979375 12.071875 -0.95875 11.14375 -0.9375 10.1875 C-0.84230396 6.97713989 -0.84230396 6.97713989 -2 4 C-1.0625 1.8125 -1.0625 1.8125 0 0 Z " fill="#F0AF3F" transform="translate(331,205)"/>
<path d="M0 0 C1.65 0 3.3 0 5 0 C5 1.32 5 2.64 5 4 C3.35 4 1.7 4 0 4 C-0.33 3.34 -0.66 2.68 -1 2 C-0.67 1.34 -0.34 0.68 0 0 Z " fill="#EEF0EE" transform="translate(272,296)"/>
<path d="M0 0 C0.99 0 1.98 0 3 0 C2.67 1.32 2.34 2.64 2 4 C2.66 4.33 3.32 4.66 4 5 C3.01 5.495 3.01 5.495 2 6 C1.01 5.67 0.02 5.34 -1 5 C-1 5.66 -1 6.32 -1 7 C-2.32 6.67 -3.64 6.34 -5 6 C-4.34 5.34 -3.68 4.68 -3 4 C-1.68 4 -0.36 4 1 4 C0.67 2.68 0.34 1.36 0 0 Z " fill="#8E776A" transform="translate(188,272)"/>
<path d="M0 0 C0.66 0 1.32 0 2 0 C2.125 3.375 2.125 3.375 2 7 C1.34 7.66 0.68 8.32 0 9 C-0.33 8.67 -0.66 8.34 -1 8 C-1.66 8.66 -2.32 9.32 -3 10 C-3 8.68 -3 7.36 -3 6 C-2.34 5.67 -1.68 5.34 -1 5 C-0.34444881 2.47266765 -0.34444881 2.47266765 0 0 Z " fill="#F4AD2B" transform="translate(342,201)"/>
<path d="M0 0 C2.64 0.33 5.28 0.66 8 1 C8 1.66 8 2.32 8 3 C4.7 3 1.4 3 -2 3 C-1.34 2.01 -0.68 1.02 0 0 Z " fill="#E7E9E8" transform="translate(181,279)"/>
<path d="M0 0 C0.33 0.99 0.66 1.98 1 3 C0.01 3.495 0.01 3.495 -1 4 C-1 3.34 -1 2.68 -1 2 C-1.99 2.66 -2.98 3.32 -4 4 C-7.1875 4.125 -7.1875 4.125 -10 4 C-6.64877401 1.34213111 -4.39380802 0 0 0 Z " fill="#AD8236" transform="translate(305,241)"/>
<path d="M0 0 C2.97 0 5.94 0 9 0 C9 0.99 9 1.98 9 3 C5.7 2.67 2.4 2.34 -1 2 C-0.67 1.34 -0.34 0.68 0 0 Z " fill="#E6E6E6" transform="translate(176,204)"/>
<path d="M0 0 C0.99 0 1.98 0 3 0 C3.33 0.99 3.66 1.98 4 3 C2.68 3.33 1.36 3.66 0 4 C-0.33 5.32 -0.66 6.64 -1 8 C-3 5 -3 5 -3 2 C-2.01 2 -1.02 2 0 2 C0 1.34 0 0.68 0 0 Z " fill="#B39051" transform="translate(319,184)"/>
<path d="M0 0 C0.7425 0.350625 1.485 0.70125 2.25 1.0625 C5.1322726 2.04509293 6.21176345 2.0326802 9 1 C8.01 2.98 7.02 4.96 6 7 C3.95880212 5.38405168 1.95927063 3.7143618 0 2 C0 1.34 0 0.68 0 0 Z " fill="#9E9F9F" transform="translate(183,254)"/>
<path d="M0 0 C2.31 0 4.62 0 7 0 C7 2.31 7 4.62 7 7 C6.67 6.34 6.34 5.68 6 5 C4.35 5 2.7 5 1 5 C2.32 4.01 3.64 3.02 5 2 C3.35 1.67 1.7 1.34 0 1 C0 0.67 0 0.34 0 0 Z " fill="#B68B34" transform="translate(258,203)"/>
<path d="M0 0 C2.64 0 5.28 0 8 0 C5.44931155 2.35448165 4.28982642 2.98327924 0.75 3.1875 C-0.1575 3.125625 -1.065 3.06375 -2 3 C-1.34 2.67 -0.68 2.34 0 2 C0 1.34 0 0.68 0 0 Z " fill="#BE8E30" transform="translate(295,239)"/>
<path d="M0 0 C1.32 0 2.64 0 4 0 C5 3 5 3 4.0625 5.1875 C3.5365625 6.0846875 3.5365625 6.0846875 3 7 C2.67 6.34 2.34 5.68 2 5 C2.33 4.34 2.66 3.68 3 3 C2.01 3.33 1.02 3.66 0 4 C0 2.68 0 1.36 0 0 Z " fill="#A09FA0" transform="translate(215,231)"/>
<path d="M0 0 C2.33944736 0.28730055 4.6739143 0.61936779 7 1 C6.01 1.33 5.02 1.66 4 2 C2.79117904 4.00016466 2.79117904 4.00016466 2 6 C1.01 4.35 0.02 2.7 -1 1 C-0.67 0.67 -0.34 0.34 0 0 Z " fill="#CAC9C9" transform="translate(203,228)"/>
<path d="M0 0 C2.475 0.495 2.475 0.495 5 1 C3.625 3.5 3.625 3.5 2 6 C1.34 6 0.68 6 0 6 C0 4.02 0 2.04 0 0 Z " fill="#949494" transform="translate(199,217)"/>
<path d="M0 0 C2.72426311 2.35277269 3.8141763 4.62496331 5 8 C4.01 8 3.02 8 2 8 C1.01 5.69 0.02 3.38 -1 1 C-0.67 0.67 -0.34 0.34 0 0 Z " fill="#BC8432" transform="translate(309,205)"/>
<path d="M0 0 C0.99 0 1.98 0 3 0 C2.67 1.98 2.34 3.96 2 6 C1.01 6.33 0.02 6.66 -1 7 C-0.67 4.69 -0.34 2.38 0 0 Z " fill="#F7A421" transform="translate(156,297)"/>
<path d="M0 0 C2 3 2 3 2 6 C2.66 6.33 3.32 6.66 4 7 C4.33 7.66 4.66 8.32 5 9 C4.34 9.66 3.68 10.32 3 11 C-1.06153846 4.6 -1.06153846 4.6 -0.75 1.5625 C-0.5025 1.046875 -0.255 0.53125 0 0 Z " fill="#BD8933" transform="translate(294,259)"/>
<path d="M0 0 C3.71599191 -0.20086443 4.77208445 -0.1519437 8 2 C8 2.66 8 3.32 8 4 C5.23723823 3.47731534 2.6739124 2.89130413 0 2 C0 1.34 0 0.68 0 0 Z " fill="#F5B545" transform="translate(259,208)"/>
<path d="M0 0 C0.99 0 1.98 0 3 0 C2.67 2.64 2.34 5.28 2 8 C1.34 8 0.68 8 0 8 C0 5.36 0 2.72 0 0 Z " fill="#F3AA29" transform="translate(324,196)"/>
<path d="M0 0 C1.65 0 3.3 0 5 0 C5 0.66 5 1.32 5 2 C5.66 2 6.32 2 7 2 C7.33 3.65 7.66 5.3 8 7 C7.34 7 6.68 7 6 7 C6 5.68 6 4.36 6 3 C4.02 3 2.04 3 0 3 C0 2.01 0 1.02 0 0 Z " fill="#EEAC3C" transform="translate(296,188)"/>
<path d="M0 0 C1.65 0 3.3 0 5 0 C4.67 2.31 4.34 4.62 4 7 C2.10786631 4.61426621 0.97608217 2.92824652 0 0 Z " fill="#B2B2B0" transform="translate(179,242)"/>
<path d="M0 0 C1.65 0 3.3 0 5 0 C5.33 1.32 5.66 2.64 6 4 C5.34 4 4.68 4 4 4 C3.67 4.99 3.34 5.98 3 7 C2.01 4.69 1.02 2.38 0 0 Z " fill="#959595" transform="translate(190,212)"/>
<path d="M0 0 C0.33 0 0.66 0 1 0 C1 2.31 1 4.62 1 7 C-0.32 7.33 -1.64 7.66 -3 8 C-1.125 2.25 -1.125 2.25 0 0 Z " fill="#A3A29C" transform="translate(211,207)"/>
<path d="M0 0 C2.475 0.99 2.475 0.99 5 2 C4.34 2.66 3.68 3.32 3 4 C-0.125 3.625 -0.125 3.625 -3 3 C-2.01 2.01 -1.02 1.02 0 0 Z " fill="#A6A5A5" transform="translate(186,205)"/>
<path d="M0 0 C0.33 0.99 0.66 1.98 1 3 C0.67 3.66 0.34 4.32 0 5 C-2.3140622 5.73075648 -4.64828869 6.40138258 -7 7 C-4.66666667 4.66666667 -2.33333333 2.33333333 0 0 Z " fill="#A87529" transform="translate(292,166)"/>
<path d="M0 0 C-0.99 0.33 -1.98 0.66 -3 1 C-3.33 1.99 -3.66 2.98 -4 4 C-5.32 3.34 -6.64 2.68 -8 2 C-7.67 1.34 -7.34 0.68 -7 0 C-2.52459016 -1.26229508 -2.52459016 -1.26229508 0 0 Z " fill="#F1A731" transform="translate(185,306)"/>
<path d="M0 0 C1.65 0 3.3 0 5 0 C5.33 1.65 5.66 3.3 6 5 C5.01 5 4.02 5 3 5 C3 4.01 3 3.02 3 2 C2.01 2 1.02 2 0 2 C0 1.34 0 0.68 0 0 Z " fill="#DE9D38" transform="translate(294,245)"/>
<path d="M0 0 C0.99 0 1.98 0 3 0 C2.67 1.65 2.34 3.3 2 5 C0.68 5 -0.64 5 -2 5 C-1.34 3.35 -0.68 1.7 0 0 Z " fill="#F1F1F1" transform="translate(202,213)"/>
<path d="M0 0 C2.64 0.33 5.28 0.66 8 1 C4.25 3 4.25 3 2 3 C1.67 3.66 1.34 4.32 1 5 C0.67 3.35 0.34 1.7 0 0 Z " fill="#A5A09D" transform="translate(217,204)"/>
<path d="M0 0 C0.66 0.66 1.32 1.32 2 2 C1.34 3.32 0.68 4.64 0 6 C-0.99 5.67 -1.98 5.34 -3 5 C-3 4.01 -3 3.02 -3 2 C-2.01 2 -1.02 2 0 2 C0 1.34 0 0.68 0 0 Z " fill="#DD9725" transform="translate(306,183)"/>
<path d="" fill="#000000" transform="translate(0,0)"/>
<path d="" fill="#000000" transform="translate(0,0)"/>
<path d="" fill="#000000" transform="translate(0,0)"/>
<path d="" fill="#000000" transform="translate(0,0)"/>
<path d="" fill="#000000" transform="translate(0,0)"/>
<path d="" fill="#000000" transform="translate(0,0)"/>
<path d="" fill="#000000" transform="translate(0,0)"/>
<path d="" fill="#000000" transform="translate(0,0)"/>
<path d="" fill="#000000" transform="translate(0,0)"/>
<path d="" fill="#000000" transform="translate(0,0)"/>
<path d="" fill="#000000" transform="translate(0,0)"/>
<path d="" fill="#000000" transform="translate(0,0)"/>
<path d="" fill="#000000" transform="translate(0,0)"/>
<path d="" fill="#000000" transform="translate(0,0)"/>
<path d="" fill="#000000" transform="translate(0,0)"/>
<path d="" fill="#000000" transform="translate(0,0)"/>
<path d="" fill="#000000" transform="translate(0,0)"/>
<path d="" fill="#000000" transform="translate(0,0)"/>
<path d="" fill="#000000" transform="translate(0,0)"/>
<path d="" fill="#000000" transform="translate(0,0)"/>
<path d="" fill="#000000" transform="translate(0,0)"/>
<path d="" fill="#000000" transform="translate(0,0)"/>
<path d="" fill="#000000" transform="translate(0,0)"/>
<path d="" fill="#000000" transform="translate(0,0)"/>
<path d="" fill="#000000" transform="translate(0,0)"/>
<path d="" fill="#000000" transform="translate(0,0)"/>
<path d="" fill="#000000" transform="translate(0,0)"/>
<path d="" fill="#000000" transform="translate(0,0)"/>
<path d="" fill="#000000" transform="translate(0,0)"/>
<path d="" fill="#000000" transform="translate(0,0)"/>
<path d="" fill="#000000" transform="translate(0,0)"/>
<path d="" fill="#000000" transform="translate(0,0)"/>
<path d="" fill="#000000" transform="translate(0,0)"/>
<path d="" fill="#000000" transform="translate(0,0)"/>
<path d="" fill="#000000" transform="translate(0,0)"/>
<path d="" fill="#000000" transform="translate(0,0)"/>
<path d="" fill="#000000" transform="translate(0,0)"/>
<path d="" fill="#000000" transform="translate(0,0)"/>
<path d="" fill="#000000" transform="translate(0,0)"/>
<path d="" fill="#000000" transform="translate(0,0)"/>
<path d="" fill="#000000" transform="translate(0,0)"/>
<path d="" fill="#000000" transform="translate(0,0)"/>
<path d="" fill="#000000" transform="translate(0,0)"/>
<path d="" fill="#000000" transform="translate(0,0)"/>
<path d="" fill="#000000" transform="translate(0,0)"/>
<path d="" fill="#000000" transform="translate(0,0)"/>
<path d="" fill="#000000" transform="translate(0,0)"/>
<path d="" fill="#000000" transform="translate(0,0)"/>
<path d="" fill="#000000" transform="translate(0,0)"/>
<path d="" fill="#000000" transform="translate(0,0)"/>
<path d="" fill="#000000" transform="translate(0,0)"/>
<path d="" fill="#000000" transform="translate(0,0)"/>
<path d="" fill="#000000" transform="translate(0,0)"/>
<path d="" fill="#000000" transform="translate(0,0)"/>
<path d="" fill="#000000" transform="translate(0,0)"/>
<path d="" fill="#000000" transform="translate(0,0)"/>
<path d="" fill="#000000" transform="translate(0,0)"/>
<path d="" fill="#000000" transform="translate(0,0)"/>
<path d="" fill="#000000" transform="translate(0,0)"/>
<path d="" fill="#000000" transform="translate(0,0)"/>
<path d="" fill="#000000" transform="translate(0,0)"/>
<path d="" fill="#000000" transform="translate(0,0)"/>
<path d="" fill="#000000" transform="translate(0,0)"/>
<path d="" fill="#000000" transform="translate(0,0)"/>
<path d="" fill="#000000" transform="translate(0,0)"/>
<path d="" fill="#000000" transform="translate(0,0)"/>
<path d="" fill="#000000" transform="translate(0,0)"/>
<path d="" fill="#000000" transform="translate(0,0)"/>
<path d="" fill="#000000" transform="translate(0,0)"/>
<path d="" fill="#000000" transform="translate(0,0)"/>
<path d="" fill="#000000" transform="translate(0,0)"/>
<path d="" fill="#000000" transform="translate(0,0)"/>
</svg>
